<svg width="658" height="313" viewBox="0 0 658 313" fill="none" xmlns="http://www.w3.org/2000/svg">
<g clip-path="url(#clip0)">
<g style="mix-blend-mode:hard-light" filter="url(#filter0_d)">
<mask id="path-1-inside-1" fill="white">
<path d="M123.287 169.887L132.284 199.251C137.152 215.131 141.497 227.828 142.064 227.828C142.073 227.827 142.082 227.823 142.089 227.816C142.712 227.205 160.321 170.368 160.321 170.368H194.45L153.275 303.711H129.554C129.554 303.711 104.234 222.436 104.338 222.128L77.9082 302.688H54.4254L13.769 169.887L47.7324 169.912C47.7324 169.912 66.337 228.522 66.585 228.522L66.5871 228.52L85.1512 169.885L123.287 169.887ZM2.17395 160.652L5.91064 172.858L46.5671 305.659L48.4816 311.914H83.7182L85.7085 305.848L104.06 249.913C105.641 255.027 107.35 260.539 109.059 266.044C113.27 279.608 117.487 293.169 121.71 306.728L123.644 312.937H159.203L161.127 306.707L202.303 173.366L206.077 161.142H154.4L152.472 167.365C148.934 178.783 145.373 190.191 141.788 201.59C141.234 199.82 140.685 198.048 140.141 196.274L131.145 166.911L129.23 160.659H79.2728L77.3209 166.824L66.474 201.084C62.8242 189.675 59.1868 178.261 55.5617 166.842L53.6088 160.69L47.7386 160.685L13.7752 160.661L2.17395 160.652ZM648.914 169.371L648.837 204.321C648.837 204.321 614.964 204.197 597.744 204.197C592.015 204.197 588.127 204.213 587.943 204.249C584.978 204.85 583.087 211.864 583.928 214.941C584.341 216.499 587.449 221.584 590.809 226.256C594.16 230.929 599.672 238.575 603.032 243.243C611.663 255.215 612.847 257.578 613.647 264.453C614.944 275.62 610.194 287.703 601.374 295.672C592.531 303.665 592.921 303.721 527.301 303.721H524.419C484.509 303.709 463.402 303.342 460.33 302.582C454.871 301.209 446.173 293.321 423.19 268.813C414.923 260.007 407.302 252.296 406.911 252.294C406.9 252.294 406.896 252.302 406.896 252.314L406.624 303.726L369.374 303.544L369.143 170.938H452.222C477.26 171.943 494.206 199.667 490.833 217.347C490.07 221.359 488.118 227.174 486.496 230.264C483.164 236.607 474.686 244.749 467.805 248.244C465.264 249.521 463.189 251.009 463.189 251.539C463.189 253.512 471.553 262.666 474.686 264.121C477.363 265.365 485.156 265.642 519.525 265.642L530.532 265.644C565.08 265.644 563.34 265.367 566.009 259.023C567.878 254.607 566.458 251.966 553.31 235.508C536.654 217.088 538.398 208.266 538.285 201.75C538.047 193.941 543.579 169.379 572.333 169.379L648.914 169.371ZM425.741 230.633C441.69 230.633 444.928 230.358 448.322 228.719C459.779 223.182 460.391 206.831 449.402 199.574C446.994 197.982 443.901 197.72 426.613 197.615L406.608 197.497C406.774 197.669 406.544 229.294 406.544 229.294C406.544 229.294 411.555 230.633 425.741 230.633ZM657.236 160.144H572.333C555.696 160.144 545.855 167.441 540.533 173.565C531.869 183.522 529.833 196.059 529.988 201.97C529.997 202.462 529.992 202.967 529.986 203.494C529.911 213.1 531.182 223.975 547.274 241.837C550.451 245.817 555.772 252.491 557.787 255.808C553.389 256.409 542.242 256.409 530.531 256.409H525.559L519.526 256.406C498.872 256.406 481.455 256.339 477.887 255.558C477.387 255.198 476.688 254.573 475.918 253.83C483.054 248.948 490.269 241.375 493.666 234.903C495.727 230.967 498.002 224.243 498.956 219.256C501.074 208.156 497.582 194.765 489.617 183.426C480.323 170.197 466.803 162.282 452.524 161.71L452.374 161.703H360.826L360.844 170.95L361.074 303.554L361.091 312.722L369.339 312.762L406.59 312.944L414.877 312.983L414.928 303.772L415.088 272.973C415.847 273.775 416.634 274.61 417.443 275.469C442.585 302.272 451.02 309.699 458.496 311.578C460.551 312.085 463.948 312.929 524.413 312.948H527.294C560.032 312.948 576.463 312.948 586.236 311.899C597.431 310.696 601.033 307.874 606.43 302.988L606.611 302.825C617.697 292.805 623.548 277.649 621.88 263.267C620.792 253.914 618.565 250.029 609.509 237.47L606.817 233.734C603.64 229.324 600.466 224.913 597.293 220.5C595.235 217.635 593.613 215.092 592.641 213.425C593.921 213.422 595.587 213.42 597.744 213.42C614.757 213.42 648.473 213.543 648.811 213.545L657.121 213.574L657.142 204.339L657.221 169.386L657.236 160.144ZM414.899 221.069L414.937 213.506C414.948 211.2 414.958 208.888 414.959 206.771L426.569 206.839C433.241 206.878 443.28 206.94 445.237 207.557C447.733 209.242 449.128 211.849 448.976 214.548C448.893 216.005 448.269 218.686 445.01 220.256C443.194 221.134 440.3 221.406 425.743 221.406C421.123 221.406 417.561 221.257 414.899 221.069ZM293.664 168.826L335.474 302.516L301.405 302.688L295.75 282.609L234.838 282.066L229.463 302.169L195.738 301.776L237.017 168.883L293.664 168.826ZM266.268 188.427C266.182 188.811 260.931 204.826 255.661 220.839C250.348 236.985 245.018 253.131 244.944 253.256C245.085 253.209 263.95 253.163 276.041 253.163C281.7 253.163 285.873 253.175 285.951 253.196L285.952 253.201V253.198L285.951 253.196C285.74 252.589 266.33 189.207 266.268 188.427L266.269 188.42L266.268 188.427ZM299.566 159.593L293.658 159.6L237.011 159.659L231.1 159.666L229.171 165.878L187.892 298.77L184.133 310.872L195.653 311.004L229.378 311.398L235.638 311.47L237.422 304.802L241.018 291.352L289.638 291.785L293.486 305.45L295.317 311.953L301.447 311.923L335.514 311.752L347.13 311.691L343.314 299.497L301.505 165.807L299.566 159.593ZM256.893 243.95C258.465 239.187 260.583 232.751 263.458 224.01L265.942 216.462L268.192 223.839C268.863 226.037 271.809 235.684 274.335 243.939C266.823 243.939 261.167 243.94 256.893 243.95ZM307.756 9.25812V42.2423H248.318V143.122H212.881V42.1627L143.501 42.3807C135.137 42.3807 134.017 49.7848 134.017 52.6219C134.017 56.106 136.061 59.5878 147.289 75.3879C154.573 85.651 161.266 95.8934 162.148 98.1308C166.963 110.449 160.737 129.639 149.395 137.435C141.312 142.986 142.693 143.123 82.6639 143.123H8.30146V106.067H109.891L112.89 103.749C114.913 102.181 116.086 100.025 116.532 97.0709C117.154 92.8268 116.833 92.2732 104.287 76.5666C89.4586 57.9974 87.8918 54.6079 88.6596 42.7532C89.5313 29.2251 100.385 9.57182 119.354 9.57182L307.756 9.25812ZM316.057 0.0179443L307.743 0.0329371L119.341 0.344326C108.489 0.344326 98.4097 5.55721 90.9685 15.0177C84.9354 22.6882 80.9756 32.813 80.3779 42.0947C79.3682 57.6768 82.5954 63.3083 98.0766 82.6928C102.57 88.3175 106.842 93.6676 108.268 95.9384C108.253 96.0008 108.234 96.0621 108.212 96.1218C108.196 96.1368 108.172 96.1552 108.139 96.1818L107.286 96.8403H0V152.349H82.6639C112.261 152.349 126.869 152.319 135.476 151.616C145.323 150.816 148.465 148.938 153.172 145.688L153.76 145.282C168.559 135.11 176.186 110.883 169.763 94.453C167.781 89.4269 155.232 71.6801 153.807 69.6733C149.868 64.1283 143.366 54.9804 142.337 52.3324C142.362 52.111 142.411 51.8792 142.462 51.72C142.634 51.6716 142.962 51.6059 143.501 51.6059L204.579 51.4133V152.347H256.619V51.4675H316.057V0.0179443V0.0179443ZM404.323 10.3295L446.017 144.365L412.012 144.158L406.492 124.079L345.85 123.779L340.433 143.121H305.806L347.043 10.3295H404.323ZM355.748 95.236L397.05 95.1784V95.1795C397.192 95.1795 376.979 29.2101 376.844 29.1639C376.697 29.1582 355.283 95.236 355.748 95.236ZM410.238 1.10319H341.129L339.2 7.32059L297.961 140.113L294.161 152.348H346.549L348.365 145.863L351.956 133.038L400.346 133.276L404.081 146.854L405.868 153.346L411.977 153.384L445.983 153.593L457.705 153.664L453.875 141.352L412.181 7.31367L410.238 1.10319ZM367.281 85.9947C370.37 76.2527 373.488 66.5219 376.634 56.8026C379.617 66.5204 382.587 76.2426 385.546 85.9694L367.281 85.9947ZM521.423 10.3295C548.322 10.3295 566.988 10.7562 570.579 11.4482C578.881 13.0536 586.382 17.9759 592.005 25.5438C597.889 33.453 599.239 37.2381 600.007 48.0779C601.108 63.3833 594.559 76.5885 581.639 85.1551C577.873 87.6578 574.005 90.0912 573.038 90.5756C571.554 91.3241 571.753 92.0414 574.407 95.5013C576.117 97.7283 579.087 100.9 580.997 102.547L584.482 105.557L648.902 106.583L649.534 143.121H610.037C579.49 143.121 569.716 142.808 566.848 141.738C562.563 140.123 552.252 130.413 531.286 108.246L516.323 92.422L516.481 143.121H478.04V10.3295H521.423ZM515.761 70.0355H536.172C556.034 70.0355 556.656 69.9651 559.49 67.6032C564.555 63.3821 566.348 59.0331 565.809 52.3555C565.262 45.4692 562.872 41.8848 556.885 39.0015C553.513 37.3627 550.264 37.0986 534.346 37.0986H515.761V70.0355ZM521.423 1.10319H469.748V152.347H524.818L524.789 143.09L524.696 114.007L525.57 114.93C551.495 142.345 559.144 148.575 564.189 150.474C568.062 151.927 574.547 152.347 610.042 152.347H658L657.838 142.944L657.206 106.407L657.055 97.4884L649.029 97.3604L587.389 96.379L586.098 95.2626C585.687 94.9051 585.188 94.4345 584.657 93.9017L585.909 93.0748C601.476 82.7494 609.636 66.0797 608.29 47.3433C607.394 34.7044 605.364 29.0106 598.41 19.6643C591.578 10.4737 582.2 4.3278 572.004 2.35913C566.335 1.26696 537.882 1.10319 521.423 1.10319ZM524.062 46.3238H534.346C548.899 46.3238 551.784 46.5925 553.561 47.4552C556.934 49.0778 557.276 49.8667 557.54 53.1709C557.805 56.4566 557.44 57.7771 554.508 60.2186L554.276 60.4101C552.341 60.8091 545.16 60.8091 536.172 60.8091H524.062V46.3238Z"/>
</mask>
<path d="M123.287 169.887L132.284 199.251C137.152 215.131 141.497 227.828 142.064 227.828C142.073 227.827 142.082 227.823 142.089 227.816C142.712 227.205 160.321 170.368 160.321 170.368H194.45L153.275 303.711H129.554C129.554 303.711 104.234 222.436 104.338 222.128L77.9082 302.688H54.4254L13.769 169.887L47.7324 169.912C47.7324 169.912 66.337 228.522 66.585 228.522L66.5871 228.52L85.1512 169.885L123.287 169.887ZM2.17395 160.652L5.91064 172.858L46.5671 305.659L48.4816 311.914H83.7182L85.7085 305.848L104.06 249.913C105.641 255.027 107.35 260.539 109.059 266.044C113.27 279.608 117.487 293.169 121.71 306.728L123.644 312.937H159.203L161.127 306.707L202.303 173.366L206.077 161.142H154.4L152.472 167.365C148.934 178.783 145.373 190.191 141.788 201.59C141.234 199.82 140.685 198.048 140.141 196.274L131.145 166.911L129.23 160.659H79.2728L77.3209 166.824L66.474 201.084C62.8242 189.675 59.1868 178.261 55.5617 166.842L53.6088 160.69L47.7386 160.685L13.7752 160.661L2.17395 160.652ZM648.914 169.371L648.837 204.321C648.837 204.321 614.964 204.197 597.744 204.197C592.015 204.197 588.127 204.213 587.943 204.249C584.978 204.85 583.087 211.864 583.928 214.941C584.341 216.499 587.449 221.584 590.809 226.256C594.16 230.929 599.672 238.575 603.032 243.243C611.663 255.215 612.847 257.578 613.647 264.453C614.944 275.62 610.194 287.703 601.374 295.672C592.531 303.665 592.921 303.721 527.301 303.721H524.419C484.509 303.709 463.402 303.342 460.33 302.582C454.871 301.209 446.173 293.321 423.19 268.813C414.923 260.007 407.302 252.296 406.911 252.294C406.9 252.294 406.896 252.302 406.896 252.314L406.624 303.726L369.374 303.544L369.143 170.938H452.222C477.26 171.943 494.206 199.667 490.833 217.347C490.07 221.359 488.118 227.174 486.496 230.264C483.164 236.607 474.686 244.749 467.805 248.244C465.264 249.521 463.189 251.009 463.189 251.539C463.189 253.512 471.553 262.666 474.686 264.121C477.363 265.365 485.156 265.642 519.525 265.642L530.532 265.644C565.08 265.644 563.34 265.367 566.009 259.023C567.878 254.607 566.458 251.966 553.31 235.508C536.654 217.088 538.398 208.266 538.285 201.75C538.047 193.941 543.579 169.379 572.333 169.379L648.914 169.371ZM425.741 230.633C441.69 230.633 444.928 230.358 448.322 228.719C459.779 223.182 460.391 206.831 449.402 199.574C446.994 197.982 443.901 197.72 426.613 197.615L406.608 197.497C406.774 197.669 406.544 229.294 406.544 229.294C406.544 229.294 411.555 230.633 425.741 230.633ZM657.236 160.144H572.333C555.696 160.144 545.855 167.441 540.533 173.565C531.869 183.522 529.833 196.059 529.988 201.97C529.997 202.462 529.992 202.967 529.986 203.494C529.911 213.1 531.182 223.975 547.274 241.837C550.451 245.817 555.772 252.491 557.787 255.808C553.389 256.409 542.242 256.409 530.531 256.409H525.559L519.526 256.406C498.872 256.406 481.455 256.339 477.887 255.558C477.387 255.198 476.688 254.573 475.918 253.83C483.054 248.948 490.269 241.375 493.666 234.903C495.727 230.967 498.002 224.243 498.956 219.256C501.074 208.156 497.582 194.765 489.617 183.426C480.323 170.197 466.803 162.282 452.524 161.71L452.374 161.703H360.826L360.844 170.95L361.074 303.554L361.091 312.722L369.339 312.762L406.59 312.944L414.877 312.983L414.928 303.772L415.088 272.973C415.847 273.775 416.634 274.61 417.443 275.469C442.585 302.272 451.02 309.699 458.496 311.578C460.551 312.085 463.948 312.929 524.413 312.948H527.294C560.032 312.948 576.463 312.948 586.236 311.899C597.431 310.696 601.033 307.874 606.43 302.988L606.611 302.825C617.697 292.805 623.548 277.649 621.88 263.267C620.792 253.914 618.565 250.029 609.509 237.47L606.817 233.734C603.64 229.324 600.466 224.913 597.293 220.5C595.235 217.635 593.613 215.092 592.641 213.425C593.921 213.422 595.587 213.42 597.744 213.42C614.757 213.42 648.473 213.543 648.811 213.545L657.121 213.574L657.142 204.339L657.221 169.386L657.236 160.144ZM414.899 221.069L414.937 213.506C414.948 211.2 414.958 208.888 414.959 206.771L426.569 206.839C433.241 206.878 443.28 206.94 445.237 207.557C447.733 209.242 449.128 211.849 448.976 214.548C448.893 216.005 448.269 218.686 445.01 220.256C443.194 221.134 440.3 221.406 425.743 221.406C421.123 221.406 417.561 221.257 414.899 221.069ZM293.664 168.826L335.474 302.516L301.405 302.688L295.75 282.609L234.838 282.066L229.463 302.169L195.738 301.776L237.017 168.883L293.664 168.826ZM266.268 188.427C266.182 188.811 260.931 204.826 255.661 220.839C250.348 236.985 245.018 253.131 244.944 253.256C245.085 253.209 263.95 253.163 276.041 253.163C281.7 253.163 285.873 253.175 285.951 253.196L285.952 253.201V253.198L285.951 253.196C285.74 252.589 266.33 189.207 266.268 188.427L266.269 188.42L266.268 188.427ZM299.566 159.593L293.658 159.6L237.011 159.659L231.1 159.666L229.171 165.878L187.892 298.77L184.133 310.872L195.653 311.004L229.378 311.398L235.638 311.47L237.422 304.802L241.018 291.352L289.638 291.785L293.486 305.45L295.317 311.953L301.447 311.923L335.514 311.752L347.13 311.691L343.314 299.497L301.505 165.807L299.566 159.593ZM256.893 243.95C258.465 239.187 260.583 232.751 263.458 224.01L265.942 216.462L268.192 223.839C268.863 226.037 271.809 235.684 274.335 243.939C266.823 243.939 261.167 243.94 256.893 243.95ZM307.756 9.25812V42.2423H248.318V143.122H212.881V42.1627L143.501 42.3807C135.137 42.3807 134.017 49.7848 134.017 52.6219C134.017 56.106 136.061 59.5878 147.289 75.3879C154.573 85.651 161.266 95.8934 162.148 98.1308C166.963 110.449 160.737 129.639 149.395 137.435C141.312 142.986 142.693 143.123 82.6639 143.123H8.30146V106.067H109.891L112.89 103.749C114.913 102.181 116.086 100.025 116.532 97.0709C117.154 92.8268 116.833 92.2732 104.287 76.5666C89.4586 57.9974 87.8918 54.6079 88.6596 42.7532C89.5313 29.2251 100.385 9.57182 119.354 9.57182L307.756 9.25812ZM316.057 0.0179443L307.743 0.0329371L119.341 0.344326C108.489 0.344326 98.4097 5.55721 90.9685 15.0177C84.9354 22.6882 80.9756 32.813 80.3779 42.0947C79.3682 57.6768 82.5954 63.3083 98.0766 82.6928C102.57 88.3175 106.842 93.6676 108.268 95.9384C108.253 96.0008 108.234 96.0621 108.212 96.1218C108.196 96.1368 108.172 96.1552 108.139 96.1818L107.286 96.8403H0V152.349H82.6639C112.261 152.349 126.869 152.319 135.476 151.616C145.323 150.816 148.465 148.938 153.172 145.688L153.76 145.282C168.559 135.11 176.186 110.883 169.763 94.453C167.781 89.4269 155.232 71.6801 153.807 69.6733C149.868 64.1283 143.366 54.9804 142.337 52.3324C142.362 52.111 142.411 51.8792 142.462 51.72C142.634 51.6716 142.962 51.6059 143.501 51.6059L204.579 51.4133V152.347H256.619V51.4675H316.057V0.0179443V0.0179443ZM404.323 10.3295L446.017 144.365L412.012 144.158L406.492 124.079L345.85 123.779L340.433 143.121H305.806L347.043 10.3295H404.323ZM355.748 95.236L397.05 95.1784V95.1795C397.192 95.1795 376.979 29.2101 376.844 29.1639C376.697 29.1582 355.283 95.236 355.748 95.236ZM410.238 1.10319H341.129L339.2 7.32059L297.961 140.113L294.161 152.348H346.549L348.365 145.863L351.956 133.038L400.346 133.276L404.081 146.854L405.868 153.346L411.977 153.384L445.983 153.593L457.705 153.664L453.875 141.352L412.181 7.31367L410.238 1.10319ZM367.281 85.9947C370.37 76.2527 373.488 66.5219 376.634 56.8026C379.617 66.5204 382.587 76.2426 385.546 85.9694L367.281 85.9947ZM521.423 10.3295C548.322 10.3295 566.988 10.7562 570.579 11.4482C578.881 13.0536 586.382 17.9759 592.005 25.5438C597.889 33.453 599.239 37.2381 600.007 48.0779C601.108 63.3833 594.559 76.5885 581.639 85.1551C577.873 87.6578 574.005 90.0912 573.038 90.5756C571.554 91.3241 571.753 92.0414 574.407 95.5013C576.117 97.7283 579.087 100.9 580.997 102.547L584.482 105.557L648.902 106.583L649.534 143.121H610.037C579.49 143.121 569.716 142.808 566.848 141.738C562.563 140.123 552.252 130.413 531.286 108.246L516.323 92.422L516.481 143.121H478.04V10.3295H521.423ZM515.761 70.0355H536.172C556.034 70.0355 556.656 69.9651 559.49 67.6032C564.555 63.3821 566.348 59.0331 565.809 52.3555C565.262 45.4692 562.872 41.8848 556.885 39.0015C553.513 37.3627 550.264 37.0986 534.346 37.0986H515.761V70.0355ZM521.423 1.10319H469.748V152.347H524.818L524.789 143.09L524.696 114.007L525.57 114.93C551.495 142.345 559.144 148.575 564.189 150.474C568.062 151.927 574.547 152.347 610.042 152.347H658L657.838 142.944L657.206 106.407L657.055 97.4884L649.029 97.3604L587.389 96.379L586.098 95.2626C585.687 94.9051 585.188 94.4345 584.657 93.9017L585.909 93.0748C601.476 82.7494 609.636 66.0797 608.29 47.3433C607.394 34.7044 605.364 29.0106 598.41 19.6643C591.578 10.4737 582.2 4.3278 572.004 2.35913C566.335 1.26696 537.882 1.10319 521.423 1.10319ZM524.062 46.3238H534.346C548.899 46.3238 551.784 46.5925 553.561 47.4552C556.934 49.0778 557.276 49.8667 557.54 53.1709C557.805 56.4566 557.44 57.7771 554.508 60.2186L554.276 60.4101C552.341 60.8091 545.16 60.8091 536.172 60.8091H524.062V46.3238Z" fill="#FFC500"/>
<path d="M132.284 199.251L128.514 200.406L128.514 200.407L132.284 199.251ZM142.064 227.828V231.77H142.142L142.221 231.767L142.064 227.828ZM142.089 227.816L139.327 225.003L139.284 225.045L139.243 225.088L142.089 227.816ZM160.321 170.368V166.426H157.415L156.555 169.202L160.321 170.368ZM194.45 170.368L198.217 171.532L199.794 166.426H194.45V170.368ZM153.275 303.711V307.653H156.184L157.042 304.874L153.275 303.711ZM129.554 303.711L125.79 304.884L126.652 307.653H129.554V303.711ZM104.338 222.128L108.084 223.357L100.602 220.869L104.338 222.128ZM77.9082 302.688V306.631H80.7641L81.6543 303.917L77.9082 302.688ZM54.4254 302.688L50.6556 303.842L51.5093 306.631H54.4254V302.688ZM13.769 169.887L13.7718 165.945L8.43766 165.941L9.99916 171.042L13.769 169.887ZM47.7324 169.912L51.4902 168.719L50.618 165.971L47.7352 165.969L47.7324 169.912ZM66.585 228.522V232.465H68.3412L69.5158 231.159L66.585 228.522ZM66.5871 228.52L69.5179 231.157L70.0883 230.523L70.3458 229.71L66.5871 228.52ZM85.1512 169.885L85.1515 165.943L82.2641 165.942L81.3925 168.695L85.1512 169.885ZM5.91064 172.858L2.14076 174.012L2.14079 174.013L5.91064 172.858ZM46.5671 305.659L50.337 304.505L50.3369 304.505L46.5671 305.659ZM48.4816 311.914L44.7116 313.068L45.5652 315.857H48.4816V311.914ZM83.7182 311.914V315.857H86.574L87.4643 313.143L83.7182 311.914ZM85.7085 305.848L81.9624 304.619V304.619L85.7085 305.848ZM104.06 249.913L107.826 248.748L104.171 236.928L100.314 248.684L104.06 249.913ZM109.059 266.044L105.294 267.213L109.059 266.044ZM121.71 306.728L117.946 307.9L117.946 307.9L121.71 306.728ZM123.644 312.937L119.88 314.11L120.743 316.88H123.644V312.937ZM159.203 312.937V316.88H162.112L162.97 314.101L159.203 312.937ZM161.127 306.707L164.894 307.87V307.87L161.127 306.707ZM202.303 173.366L206.07 174.529L206.07 174.529L202.303 173.366ZM206.077 161.142L209.844 162.305L211.42 157.2H206.077V161.142ZM154.4 161.142V157.2H151.494L150.634 159.975L154.4 161.142ZM152.472 167.365L156.238 168.532L156.238 168.532L152.472 167.365ZM141.788 201.59L138.025 202.768L141.779 214.76L145.549 202.773L141.788 201.59ZM140.141 196.274L136.372 197.429L136.372 197.429L140.141 196.274ZM131.145 166.911L134.915 165.756L134.915 165.756L131.145 166.911ZM129.23 160.659L133 159.504L132.145 156.716H129.23V160.659ZM79.2728 160.659V156.716H76.3855L75.514 159.469L79.2728 160.659ZM77.3209 166.824L81.0796 168.014L81.0796 168.014L77.3209 166.824ZM66.474 201.084L62.7189 202.285L66.4934 214.085L70.2327 202.274L66.474 201.084ZM55.5617 166.842L59.3195 165.649H59.3195L55.5617 166.842ZM53.6088 160.69L57.3665 159.497L56.4944 156.75L53.6119 156.747L53.6088 160.69ZM47.7386 160.685L47.7417 156.743H47.7414L47.7386 160.685ZM13.7752 160.661L13.7721 164.604H13.7724L13.7752 160.661ZM648.837 204.321L648.823 208.264L652.771 208.278L652.78 204.33L648.837 204.321ZM587.943 204.249L587.19 200.379L587.175 200.382L587.16 200.385L587.943 204.249ZM583.928 214.941L587.739 213.931L587.735 213.916L587.731 213.901L583.928 214.941ZM590.809 226.256L594.013 223.958L594.01 223.954L590.809 226.256ZM603.032 243.243L599.832 245.546L599.834 245.548L603.032 243.243ZM613.647 264.453L617.564 263.998L617.563 263.997L613.647 264.453ZM601.374 295.672L598.73 292.747L598.73 292.748L601.374 295.672ZM524.419 303.721L524.418 307.664H524.419V303.721ZM460.33 302.582L459.368 306.405L459.376 306.407L459.383 306.409L460.33 302.582ZM423.19 268.813L426.066 266.117L426.064 266.115L423.19 268.813ZM406.911 252.294L406.934 248.351L406.922 248.351H406.911V252.294ZM406.896 252.314L410.839 252.335L410.839 252.325V252.314H406.896ZM406.624 303.726L406.605 307.668L410.546 307.688L410.567 303.747L406.624 303.726ZM369.374 303.544L365.431 303.551L365.438 307.467L369.354 307.486L369.374 303.544ZM369.143 170.938V166.996H365.194L365.201 170.945L369.143 170.938ZM452.222 170.938L452.38 166.999L452.301 166.996H452.222V170.938ZM490.833 217.347L486.961 216.608L486.96 216.609L490.833 217.347ZM486.496 230.264L489.986 232.097L489.987 232.096L486.496 230.264ZM467.805 248.244L469.575 251.767L469.583 251.763L469.591 251.759L467.805 248.244ZM474.686 264.121L476.348 260.545L476.346 260.545L474.686 264.121ZM519.525 265.642L519.526 261.699H519.525V265.642ZM530.532 265.644L530.531 269.587H530.532V265.644ZM566.009 259.023L562.379 257.487L562.375 257.494L566.009 259.023ZM553.31 235.508L556.391 233.047L556.315 232.953L556.234 232.863L553.31 235.508ZM538.285 201.75L542.227 201.681L542.226 201.655L542.225 201.63L538.285 201.75ZM572.333 169.379V173.321H572.333L572.333 169.379ZM448.322 228.719L450.036 232.269L450.037 232.269L448.322 228.719ZM449.402 199.574L447.227 202.863L447.229 202.864L449.402 199.574ZM426.613 197.615L426.637 193.672H426.636L426.613 197.615ZM406.608 197.497L406.631 193.555L397.263 193.5L403.772 200.237L406.608 197.497ZM406.544 229.294L402.602 229.265L402.58 232.315L405.527 233.103L406.544 229.294ZM540.533 173.565L543.507 176.154L543.509 176.152L540.533 173.565ZM529.988 201.97L533.93 201.903L533.93 201.885L533.93 201.866L529.988 201.97ZM529.986 203.494L526.044 203.448L526.044 203.456L526.044 203.464L529.986 203.494ZM547.274 241.837L550.355 239.377L550.282 239.285L550.203 239.198L547.274 241.837ZM557.787 255.808L558.32 259.714L564.279 258.9L561.156 253.761L557.787 255.808ZM525.559 256.409L525.558 260.351H525.559V256.409ZM519.526 256.406L519.528 252.464H519.526V256.406ZM477.887 255.558L475.585 258.758L476.247 259.234L477.043 259.409L477.887 255.558ZM475.918 253.83L473.692 250.576L469.698 253.308L473.181 256.667L475.918 253.83ZM493.666 234.903L497.157 236.736L497.159 236.732L493.666 234.903ZM498.956 219.256L502.829 219.998L502.829 219.995L498.956 219.256ZM489.617 183.426L492.843 181.16L492.843 181.16L489.617 183.426ZM452.524 161.71L452.343 165.648L452.355 165.648L452.366 165.649L452.524 161.71ZM452.374 161.703L452.555 157.764L452.464 157.76H452.374V161.703ZM360.826 161.703V157.76H356.876L356.884 161.71L360.826 161.703ZM360.844 170.95L364.786 170.943V170.942L360.844 170.95ZM361.074 303.554L357.132 303.561V303.561L361.074 303.554ZM361.091 312.722L357.148 312.729L357.155 316.645L361.072 316.664L361.091 312.722ZM369.339 312.762L369.359 308.819H369.359L369.339 312.762ZM406.59 312.944L406.571 316.887H406.572L406.59 312.944ZM414.877 312.983L414.858 316.926L418.798 316.945L418.82 313.005L414.877 312.983ZM414.928 303.772L418.87 303.794V303.793L414.928 303.772ZM415.088 272.973L417.949 270.261L411.196 263.135L411.145 272.953L415.088 272.973ZM417.443 275.469L420.319 272.772L420.313 272.766L417.443 275.469ZM458.496 311.578L457.535 315.401L457.543 315.403L457.551 315.405L458.496 311.578ZM524.413 312.948L524.412 316.89H524.413V312.948ZM586.236 311.899L586.656 315.819L586.657 315.819L586.236 311.899ZM606.43 302.988L603.791 300.059L603.784 300.065L606.43 302.988ZM606.611 302.825L609.25 305.754L609.254 305.75L606.611 302.825ZM621.88 263.267L625.797 262.813L625.796 262.811L621.88 263.267ZM609.509 237.47L606.31 239.775L606.311 239.776L609.509 237.47ZM606.817 233.734L610.016 231.429L610.016 231.429L606.817 233.734ZM597.293 220.5L594.092 222.801L594.092 222.801L597.293 220.5ZM592.641 213.425L592.63 209.483L585.786 209.501L589.235 215.412L592.641 213.425ZM648.811 213.545L648.784 217.488L648.798 217.488L648.811 213.545ZM657.121 213.574L657.107 217.517L661.055 217.53L661.064 213.583L657.121 213.574ZM657.142 204.339L653.199 204.33V204.33L657.142 204.339ZM657.221 169.386L661.163 169.395V169.392L657.221 169.386ZM414.899 221.069L410.956 221.049L410.938 224.742L414.621 225.002L414.899 221.069ZM414.937 213.506L418.88 213.526L418.88 213.524L414.937 213.506ZM414.959 206.771L414.982 202.828L411.018 202.805L411.017 206.769L414.959 206.771ZM426.569 206.839L426.592 202.896H426.592L426.569 206.839ZM445.237 207.557L447.442 204.29L446.968 203.969L446.422 203.797L445.237 207.557ZM448.976 214.548L452.913 214.772L452.913 214.769L448.976 214.548ZM445.01 220.256L443.298 216.705L443.295 216.707L445.01 220.256ZM293.664 168.826L297.427 167.65L296.561 164.881L293.66 164.884L293.664 168.826ZM335.474 302.516L335.493 306.459L340.829 306.432L339.236 301.339L335.474 302.516ZM301.405 302.688L297.61 303.757L298.424 306.646L301.425 306.63L301.405 302.688ZM295.75 282.609L299.545 281.54L298.743 278.693L295.785 278.667L295.75 282.609ZM234.838 282.066L234.873 278.124L231.818 278.096L231.029 281.048L234.838 282.066ZM229.463 302.169L229.417 306.111L232.48 306.147L233.272 303.187L229.463 302.169ZM195.738 301.776L191.973 300.606L190.404 305.656L195.692 305.718L195.738 301.776ZM237.017 168.883L237.013 164.94L234.113 164.943L233.252 167.713L237.017 168.883ZM255.661 220.839L251.916 219.606L251.916 219.606L255.661 220.839ZM244.944 253.256L241.551 251.248L236.224 260.254L246.169 257.003L244.944 253.256ZM285.951 253.196L289.831 252.493L289.385 250.031L286.967 249.386L285.951 253.196ZM285.952 253.201L282.073 253.904L289.895 253.201H285.952ZM285.952 253.198H289.895V252.346L289.543 251.57L285.952 253.198ZM285.951 253.196L282.229 254.495L282.287 254.662L282.36 254.823L285.951 253.196ZM293.658 159.6L293.662 163.543H293.663L293.658 159.6ZM237.011 159.659L237.007 155.716H237.006L237.011 159.659ZM231.1 159.666L231.096 155.723L228.195 155.727L227.335 158.497L231.1 159.666ZM229.171 165.878L232.936 167.047L232.936 167.047L229.171 165.878ZM187.892 298.77L191.657 299.94L191.657 299.94L187.892 298.77ZM184.133 310.872L180.368 309.702L178.798 314.753L184.087 314.814L184.133 310.872ZM195.653 311.004L195.699 307.062H195.698L195.653 311.004ZM229.378 311.398L229.332 315.34H229.332L229.378 311.398ZM235.638 311.47L235.592 315.413L238.655 315.448L239.447 312.489L235.638 311.47ZM237.422 304.802L241.231 305.821L241.231 305.82L237.422 304.802ZM241.018 291.352L241.054 287.41L237.999 287.383L237.21 290.334L241.018 291.352ZM289.638 291.785L293.433 290.716L292.631 287.869L289.673 287.842L289.638 291.785ZM293.486 305.45L289.691 306.519L289.691 306.519L293.486 305.45ZM295.317 311.953L291.522 313.022L292.336 315.911L295.337 315.896L295.317 311.953ZM301.447 311.923L301.466 315.866H301.467L301.447 311.923ZM335.514 311.752L335.534 315.694H335.535L335.514 311.752ZM347.13 311.691L347.151 315.633L352.486 315.605L350.893 310.513L347.13 311.691ZM343.314 299.497L339.551 300.674L339.552 300.674L343.314 299.497ZM301.505 165.807L297.742 166.982L297.742 166.984L301.505 165.807ZM263.458 224.01L259.713 222.778V222.778L263.458 224.01ZM265.942 216.462L269.712 215.311L266.083 203.416L262.196 215.23L265.942 216.462ZM268.192 223.839L271.963 222.688L271.963 222.688L268.192 223.839ZM274.335 243.939V247.882H279.665L278.105 242.785L274.335 243.939ZM307.756 42.2423V46.1848H311.699V42.2423H307.756ZM248.318 42.2423V38.2997H244.375V42.2423H248.318ZM248.318 143.122V147.064H252.26V143.122H248.318ZM212.881 143.122H208.938V147.064H212.881V143.122ZM212.881 42.1627H216.823V38.2077L212.868 38.2202L212.881 42.1627ZM143.501 42.3807V46.3233L143.514 46.3232L143.501 42.3807ZM147.289 75.3879L150.504 73.1059L150.503 73.1041L147.289 75.3879ZM162.148 98.1308L165.82 96.6955L165.816 96.6849L162.148 98.1308ZM149.395 137.435L151.627 140.685L151.629 140.684L149.395 137.435ZM8.30146 143.123H4.3589V147.066H8.30146V143.123ZM8.30146 106.067V102.124H4.3589V106.067H8.30146ZM109.891 106.067V110.009H111.237L112.302 109.186L109.891 106.067ZM112.89 103.749L115.301 106.868L115.304 106.865L112.89 103.749ZM116.532 97.0709L120.43 97.6599L120.431 97.6515L120.433 97.6432L116.532 97.0709ZM104.287 76.5666L101.206 79.0267L101.207 79.0271L104.287 76.5666ZM88.6596 42.7532L92.594 43.008L92.594 43.0067L88.6596 42.7532ZM119.354 9.57182V13.5144L119.361 13.5144L119.354 9.57182ZM316.057 0.0179443H320V-3.93174L316.05 -3.92461L316.057 0.0179443ZM307.743 0.0329371L307.749 3.9755L307.75 3.9755L307.743 0.0329371ZM119.341 0.344326V4.2869L119.347 4.28689L119.341 0.344326ZM90.9685 15.0177L87.8696 12.5802L87.8696 12.5803L90.9685 15.0177ZM80.3779 42.0947L84.3122 42.3496L84.3123 42.348L80.3779 42.0947ZM98.0766 82.6928L94.9959 85.1532L94.9962 85.1536L98.0766 82.6928ZM108.268 95.9384L112.1 96.8634L112.49 95.2487L111.607 93.842L108.268 95.9384ZM108.212 96.1218L110.947 98.9613L111.593 98.3391L111.906 97.4987L108.212 96.1218ZM108.139 96.1818L110.548 99.3025L110.574 99.2825L110.6 99.2621L108.139 96.1818ZM107.286 96.8403V100.783H108.631L109.695 99.961L107.286 96.8403ZM0 96.8403V92.8977H-3.94256V96.8403H0ZM0 152.349H-3.94256V156.292H0V152.349ZM135.476 151.616L135.156 147.686L135.155 147.686L135.476 151.616ZM153.172 145.688L155.412 148.932L155.414 148.931L153.172 145.688ZM153.76 145.282L151.527 142.033L151.518 142.039L153.76 145.282ZM169.763 94.453L173.435 93.0174L173.431 93.0067L169.763 94.453ZM153.807 69.6733L157.022 67.3909L157.022 67.3901L153.807 69.6733ZM142.337 52.3324L138.419 51.8918L138.311 52.8563L138.662 53.7609L142.337 52.3324ZM142.462 51.72L141.389 47.9264L139.366 48.4988L138.714 50.4981L142.462 51.72ZM143.501 51.6059V55.5484L143.514 55.5484L143.501 51.6059ZM204.579 51.4133H208.522V47.4582L204.567 47.4707L204.579 51.4133ZM204.579 152.347H200.637V156.29H204.579V152.347ZM256.619 152.347V156.29H260.562V152.347H256.619ZM256.619 51.4675V47.5249H252.676V51.4675H256.619ZM316.057 51.4675V55.41H320V51.4675H316.057ZM404.323 10.3295L408.087 9.15848L407.225 6.38696H404.323V10.3295ZM446.017 144.365L445.993 148.308L451.382 148.341L449.782 143.194L446.017 144.365ZM412.012 144.158L408.211 145.203L409.002 148.082L411.988 148.1L412.012 144.158ZM406.492 124.079L410.293 123.034L409.501 120.151L406.511 120.136L406.492 124.079ZM345.85 123.779L345.87 119.836L342.865 119.822L342.054 122.715L345.85 123.779ZM340.433 143.121V147.063H343.423L344.229 144.184L340.433 143.121ZM305.806 143.121L302.041 141.952L300.454 147.063H305.806V143.121ZM347.043 10.3295V6.38696H344.139L343.277 9.1603L347.043 10.3295ZM397.05 95.1784H400.992V91.2303L397.044 91.2358L397.05 95.1784ZM397.05 95.1795H393.107V99.1221H397.05V95.1795ZM376.844 29.1639L378.12 25.4335L377.574 25.2469L376.998 25.2244L376.844 29.1639ZM410.238 1.10319L414 -0.0743341L413.135 -2.83937H410.238V1.10319ZM341.129 1.10319V-2.83937H338.224L337.363 -0.0651182L341.129 1.10319ZM339.2 7.32059L342.965 8.48987L342.965 8.4889L339.2 7.32059ZM297.961 140.113L301.726 141.282L301.727 141.282L297.961 140.113ZM294.161 152.348L290.396 151.179L288.809 156.291H294.161V152.348ZM346.549 152.348V156.291H349.539L350.345 153.411L346.549 152.348ZM348.365 145.863L352.161 146.926V146.926L348.365 145.863ZM351.956 133.038L351.976 129.095L348.97 129.08L348.16 131.974L351.956 133.038ZM400.346 133.276L404.148 132.231L403.355 129.348L400.366 129.334L400.346 133.276ZM404.081 146.854L400.28 147.9L400.28 147.9L404.081 146.854ZM405.868 153.346L402.067 154.392L402.859 157.27L405.843 157.288L405.868 153.346ZM411.977 153.384L411.952 157.326H411.953L411.977 153.384ZM445.983 153.593L445.958 157.535H445.959L445.983 153.593ZM457.705 153.664L457.681 157.607L463.071 157.64L461.47 152.493L457.705 153.664ZM453.875 141.352L450.111 142.523V142.523L453.875 141.352ZM412.181 7.31367L415.946 6.14263L415.944 6.13614L412.181 7.31367ZM376.634 56.8026L380.403 55.6459L376.735 43.6921L372.883 55.5882L376.634 56.8026ZM385.546 85.9694L385.551 89.9119L390.864 89.9045L389.318 84.822L385.546 85.9694ZM570.579 11.4482L571.328 7.57737L571.325 7.57686L570.579 11.4482ZM592.005 25.5438L588.841 27.8952L588.842 27.8969L592.005 25.5438ZM600.007 48.0779L596.074 48.3565L596.075 48.3608L600.007 48.0779ZM581.639 85.1551L579.46 81.8692L579.457 81.8716L581.639 85.1551ZM573.038 90.5756L571.272 87.0505L571.262 87.0555L573.038 90.5756ZM574.407 95.5013L571.279 97.9011L571.28 97.9025L574.407 95.5013ZM580.997 102.547L583.573 99.5629L583.572 99.5613L580.997 102.547ZM584.482 105.557L581.905 108.541L582.989 109.476L584.419 109.499L584.482 105.557ZM648.902 106.583L652.844 106.515L652.778 102.702L648.964 102.641L648.902 106.583ZM649.534 143.121V147.063H653.545L653.475 143.053L649.534 143.121ZM566.848 141.738L565.458 145.427L565.469 145.432L566.848 141.738ZM531.286 108.246L528.422 110.955L528.422 110.955L531.286 108.246ZM516.323 92.422L519.188 89.7132L512.35 82.4816L512.38 92.4343L516.323 92.422ZM516.481 143.121V147.063H520.436L520.423 143.108L516.481 143.121ZM478.04 143.121H474.097V147.063H478.04V143.121ZM478.04 10.3295V6.38696H474.097V10.3295H478.04ZM559.49 67.6032L556.966 64.5745L556.965 64.5746L559.49 67.6032ZM565.809 52.3555L561.879 52.6676L561.879 52.6724L565.809 52.3555ZM556.885 39.0015L555.162 42.5476L555.174 42.5537L556.885 39.0015ZM515.761 37.0986V33.156H511.818V37.0986H515.761ZM469.748 1.10319V-2.83937H465.805V1.10319H469.748ZM469.748 152.347H465.805V156.29H469.748V152.347ZM524.818 152.347V156.29H528.772L528.76 152.335L524.818 152.347ZM524.789 143.09L528.732 143.078V143.077L524.789 143.09ZM524.696 114.007L527.559 111.296L520.722 104.076L520.754 114.02L524.696 114.007ZM525.57 114.93L528.434 112.221L528.432 112.219L525.57 114.93ZM564.189 150.474L562.8 154.164L562.804 154.165L564.189 150.474ZM658 152.347V156.29H662.011L661.942 152.279L658 152.347ZM657.838 142.944L661.78 142.876L661.78 142.876L657.838 142.944ZM657.206 106.407L653.264 106.474L653.264 106.475L657.206 106.407ZM657.055 97.4884L660.997 97.4214L660.932 93.6072L657.117 93.5464L657.055 97.4884ZM649.029 97.3604L649.092 93.4184H649.092L649.029 97.3604ZM587.389 96.379L584.81 99.361L585.893 100.298L587.326 100.321L587.389 96.379ZM586.098 95.2626L583.51 98.237L583.519 98.2446L586.098 95.2626ZM584.657 93.9017L582.484 90.6115L578.458 93.2694L581.865 96.6855L584.657 93.9017ZM585.909 93.0748L588.081 96.365L588.088 96.3603L585.909 93.0748ZM608.29 47.3433L604.357 47.6219L604.357 47.6258L608.29 47.3433ZM598.41 19.6643L595.246 22.0164L595.247 22.0176L598.41 19.6643ZM572.004 2.35913L572.751 -1.51194L572.75 -1.51224L572.004 2.35913ZM553.561 47.4552L551.84 51.0021L551.852 51.0079L553.561 47.4552ZM557.54 53.1709L553.61 53.4844L553.61 53.4886L557.54 53.1709ZM554.508 60.2186L557.021 63.2562L557.03 63.2485L554.508 60.2186ZM554.276 60.4101L555.073 64.2714L556.034 64.0732L556.79 63.4476L554.276 60.4101ZM524.062 60.8091H520.12V64.7517H524.062V60.8091ZM119.518 171.042L128.514 200.406L136.053 198.097L127.057 168.733L119.518 171.042ZM128.514 200.407C130.957 208.374 133.273 215.56 135.057 220.771C135.946 223.369 136.716 225.515 137.31 227.033C137.602 227.779 137.881 228.449 138.13 228.965C138.246 229.205 138.415 229.538 138.627 229.858C138.724 230.004 138.929 230.301 139.239 230.606C139.364 230.728 140.375 231.77 142.064 231.77V223.885C143.718 223.885 144.686 224.903 144.761 224.976C145.021 225.232 145.169 225.455 145.202 225.505C145.285 225.631 145.298 225.676 145.231 225.537C145.115 225.297 144.924 224.851 144.653 224.158C144.121 222.799 143.394 220.779 142.517 218.218C140.769 213.11 138.479 206.009 136.053 198.096L128.514 200.407ZM142.221 231.767C143.306 231.724 144.263 231.246 144.935 230.544L139.243 225.088C139.902 224.401 140.84 223.931 141.907 223.888L142.221 231.767ZM144.851 230.63C145.231 230.256 145.447 229.888 145.491 229.814C145.575 229.673 145.637 229.551 145.672 229.479C145.744 229.332 145.803 229.192 145.842 229.097C145.926 228.895 146.015 228.657 146.103 228.415C146.282 227.919 146.515 227.241 146.789 226.426C147.338 224.789 148.084 222.499 148.954 219.787C150.697 214.36 152.96 207.188 155.2 200.043C157.442 192.896 159.663 185.769 161.324 180.43C162.155 177.76 162.846 175.536 163.328 173.98C163.57 173.202 163.76 172.591 163.889 172.175C163.953 171.966 164.003 171.806 164.036 171.699C164.053 171.645 164.066 171.604 164.074 171.577C164.078 171.563 164.082 171.553 164.084 171.546C164.085 171.542 164.086 171.54 164.086 171.538C164.086 171.537 164.087 171.536 164.087 171.536C164.087 171.535 164.087 171.535 160.321 170.368C156.555 169.202 156.555 169.202 156.555 169.202C156.555 169.203 156.555 169.203 156.554 169.204C156.554 169.206 156.553 169.208 156.552 169.212C156.55 169.219 156.547 169.229 156.542 169.243C156.534 169.27 156.521 169.311 156.505 169.364C156.471 169.472 156.422 169.631 156.357 169.839C156.228 170.255 156.039 170.866 155.798 171.643C155.315 173.198 154.625 175.419 153.795 178.088C152.135 183.424 149.915 190.544 147.677 197.683C145.437 204.824 143.181 211.976 141.447 217.377C140.579 220.08 139.846 222.331 139.313 223.918C139.046 224.716 138.837 225.322 138.69 225.726C138.615 225.934 138.57 226.05 138.55 226.099C138.537 226.128 138.552 226.089 138.589 226.014C138.606 225.979 138.652 225.887 138.722 225.77C138.752 225.719 138.956 225.367 139.327 225.003L144.851 230.63ZM160.321 174.311H194.45V166.426H160.321V174.311ZM190.683 169.205L149.508 302.548L157.042 304.874L198.217 171.532L190.683 169.205ZM153.275 299.768H129.554V307.653H153.275V299.768ZM129.554 303.711C133.318 302.538 133.318 302.538 133.318 302.537C133.317 302.537 133.317 302.536 133.317 302.535C133.316 302.532 133.315 302.528 133.313 302.523C133.31 302.514 133.306 302.499 133.299 302.479C133.287 302.44 133.269 302.382 133.245 302.305C133.197 302.152 133.126 301.923 133.034 301.626C132.848 301.03 132.576 300.157 132.23 299.046C131.538 296.823 130.55 293.648 129.364 289.836C126.992 282.212 123.83 272.044 120.672 261.867C117.514 251.689 114.36 241.504 112.002 233.845C110.823 230.015 109.845 226.822 109.165 224.579C108.824 223.455 108.562 222.58 108.387 221.984C108.299 221.684 108.238 221.472 108.202 221.342C108.183 221.271 108.179 221.256 108.183 221.273C108.183 221.274 108.199 221.337 108.216 221.43C108.224 221.469 108.245 221.587 108.261 221.742C108.268 221.824 108.279 222.034 108.28 222.16C108.273 222.372 108.185 222.99 108.074 223.387L100.602 220.869C100.491 221.267 100.403 221.887 100.395 222.101C100.396 222.23 100.407 222.443 100.415 222.529C100.431 222.691 100.454 222.819 100.464 222.87C100.486 222.987 100.509 223.085 100.52 223.13C100.545 223.234 100.575 223.344 100.6 223.437C100.654 223.632 100.73 223.894 100.821 224.206C101.006 224.835 101.277 225.737 101.619 226.866C102.304 229.126 103.286 232.333 104.466 236.165C106.827 243.833 109.983 254.024 113.141 264.203C116.3 274.383 119.462 284.553 121.835 292.178C123.021 295.991 124.009 299.167 124.702 301.39C125.048 302.502 125.32 303.375 125.505 303.97C125.598 304.268 125.669 304.496 125.717 304.65C125.741 304.727 125.759 304.785 125.771 304.825C125.777 304.844 125.782 304.859 125.785 304.869C125.786 304.874 125.788 304.877 125.788 304.88C125.789 304.881 125.789 304.882 125.789 304.883C125.789 304.883 125.79 304.884 129.554 303.711ZM100.592 220.899L74.1621 301.459L81.6543 303.917L108.084 223.357L100.592 220.899ZM77.9082 298.745H54.4254V306.631H77.9082V298.745ZM58.1953 301.534L17.5389 168.733L9.99916 171.042L50.6556 303.842L58.1953 301.534ZM13.7662 173.83L47.7296 173.854L47.7352 165.969L13.7718 165.945L13.7662 173.83ZM47.7324 169.912C43.9746 171.105 43.9747 171.105 43.9748 171.105C43.975 171.106 43.9752 171.106 43.9755 171.107C43.976 171.109 43.9769 171.112 43.978 171.115C43.9803 171.122 43.9836 171.133 43.9881 171.147C43.9971 171.175 44.0104 171.217 44.028 171.273C44.0633 171.384 44.1156 171.549 44.1837 171.763C44.3201 172.193 44.5202 172.822 44.7748 173.624C45.2841 175.227 46.012 177.517 46.8862 180.265C48.6345 185.76 50.9684 193.088 53.3102 200.417C55.6516 207.744 58.0023 215.076 59.7838 220.579C60.674 223.328 61.4249 225.629 61.9623 227.247C62.2299 228.052 62.4501 228.705 62.6102 229.163C62.6882 229.387 62.7631 229.596 62.8274 229.764C62.8554 229.837 62.905 229.965 62.9657 230.1C62.9886 230.15 63.0623 230.314 63.1745 230.505C63.2204 230.583 63.3605 230.82 63.5875 231.085C63.7137 231.225 64.0612 231.552 64.2902 231.728C64.6868 231.978 65.8335 232.392 66.585 232.465V224.579C67.3355 224.652 68.4812 225.066 68.8765 225.314C69.1042 225.49 69.4503 225.815 69.575 225.954C69.799 226.215 69.9354 226.446 69.9772 226.518C70.0811 226.695 70.1443 226.837 70.1544 226.86C70.1897 226.938 70.2053 226.981 70.1908 226.944C70.1701 226.89 70.1265 226.77 70.0546 226.564C69.9149 226.164 69.71 225.558 69.4452 224.761C68.9177 223.173 68.1743 220.895 67.2855 218.15C65.5089 212.662 63.1619 205.342 60.8212 198.017C58.4808 190.693 56.148 183.368 54.4002 177.874C53.5264 175.128 52.7988 172.839 52.2897 171.236C52.0352 170.435 51.8353 169.806 51.699 169.377C51.6309 169.162 51.5787 168.998 51.5435 168.887C51.5259 168.831 51.5126 168.789 51.5036 168.761C51.4992 168.747 51.4958 168.737 51.4935 168.73C51.4924 168.726 51.4916 168.723 51.491 168.722C51.4907 168.721 51.4905 168.72 51.4904 168.72C51.4902 168.719 51.4902 168.719 47.7324 169.912ZM69.5158 231.159L69.5179 231.157L63.6562 225.883L63.6542 225.885L69.5158 231.159ZM70.3458 229.71L88.9099 171.075L81.3925 168.695L62.8284 227.33L70.3458 229.71ZM85.151 173.828L123.287 173.83L123.287 165.945L85.1515 165.943L85.151 173.828ZM-1.59593 161.806L2.14076 174.012L9.68052 171.704L5.94382 159.498L-1.59593 161.806ZM2.14079 174.013L42.7972 306.813L50.3369 304.505L9.6805 171.704L2.14079 174.013ZM42.7971 306.813L44.7116 313.068L52.2515 310.76L50.337 304.505L42.7971 306.813ZM48.4816 315.857H83.7182V307.972H48.4816V315.857ZM87.4643 313.143L89.4546 307.077L81.9624 304.619L79.9721 310.685L87.4643 313.143ZM89.4546 307.077L107.806 251.142L100.314 248.684L81.9624 304.619L89.4546 307.077ZM100.293 251.078C101.875 256.194 103.585 261.707 105.294 267.213L112.825 264.876C111.116 259.37 109.407 253.86 107.826 248.748L100.293 251.078ZM105.294 267.213C109.505 280.778 113.722 294.34 117.946 307.9L125.474 305.555C121.251 291.998 117.035 278.438 112.825 264.876L105.294 267.213ZM117.946 307.9L119.88 314.11L127.408 311.765L125.474 305.555L117.946 307.9ZM123.644 316.88H159.203V308.995H123.644V316.88ZM162.97 314.101L164.894 307.87L157.36 305.544L155.436 311.774L162.97 314.101ZM164.894 307.87L206.07 174.529L198.535 172.203L157.36 305.544L164.894 307.87ZM206.07 174.529L209.844 162.305L202.309 159.979L198.535 172.203L206.07 174.529ZM206.077 157.2H154.4V165.085H206.077V157.2ZM150.634 159.975L148.706 166.199L156.238 168.532L158.166 162.309L150.634 159.975ZM148.706 166.198C145.17 177.61 141.61 189.014 138.027 200.408L145.549 202.773C149.135 191.368 152.698 179.955 156.238 168.532L148.706 166.198ZM145.55 200.413C144.999 198.65 144.452 196.885 143.911 195.118L136.372 197.429C136.918 199.211 137.469 200.99 138.025 202.768L145.55 200.413ZM143.911 195.119L134.915 165.756L127.376 168.066L136.372 197.429L143.911 195.119ZM134.915 165.756L133 159.504L125.46 161.814L127.376 168.066L134.915 165.756ZM129.23 156.716H79.2728V164.601H129.23V156.716ZM75.514 159.469L73.5622 165.634L81.0796 168.014L83.0315 161.849L75.514 159.469ZM73.5622 165.634L62.7153 199.894L70.2327 202.274L81.0796 168.014L73.5622 165.634ZM70.2291 199.883C66.5802 188.476 62.9436 177.065 59.3195 165.649L51.8039 168.035C55.4299 179.456 59.0682 190.873 62.7189 202.285L70.2291 199.883ZM59.3195 165.649L57.3665 159.497L49.851 161.883L51.8039 168.035L59.3195 165.649ZM53.6119 156.747L47.7417 156.743L47.7355 164.628L53.6057 164.633L53.6119 156.747ZM47.7414 156.743L13.7781 156.719L13.7724 164.604L47.7358 164.628L47.7414 156.743ZM13.7784 156.719L2.17708 156.709L2.17081 164.595L13.7721 164.604L13.7784 156.719ZM644.971 169.362L644.895 204.313L652.78 204.33L652.857 169.379L644.971 169.362ZM648.837 204.321C648.852 200.379 648.852 200.379 648.851 200.379C648.851 200.379 648.851 200.379 648.85 200.379C648.849 200.379 648.848 200.379 648.846 200.379C648.841 200.379 648.835 200.379 648.827 200.379C648.811 200.379 648.786 200.379 648.754 200.378C648.689 200.378 648.593 200.378 648.467 200.377C648.215 200.376 647.842 200.375 647.362 200.373C646.402 200.37 645.011 200.365 643.289 200.359C639.844 200.348 635.071 200.332 629.76 200.317C619.139 200.285 606.36 200.254 597.744 200.254V208.139C606.348 208.139 619.116 208.17 629.737 208.202C635.046 208.217 639.818 208.233 643.262 208.244C644.984 208.25 646.375 208.255 647.334 208.259C647.814 208.26 648.186 208.262 648.438 208.262C648.565 208.263 648.661 208.263 648.725 208.264C648.758 208.264 648.782 208.264 648.798 208.264C648.806 208.264 648.812 208.264 648.817 208.264C648.819 208.264 648.82 208.264 648.821 208.264C648.822 208.264 648.822 208.264 648.822 208.264C648.823 208.264 648.823 208.264 648.837 204.321ZM597.744 200.254C594.877 200.254 592.465 200.258 590.744 200.267C589.885 200.271 589.19 200.277 588.692 200.283C588.446 200.287 588.234 200.291 588.069 200.295C587.989 200.298 587.9 200.301 587.815 200.305C587.774 200.307 587.712 200.311 587.643 200.317C587.617 200.319 587.423 200.333 587.19 200.379L588.696 208.119C588.562 208.145 588.456 208.158 588.414 208.163C588.362 208.169 588.321 208.172 588.299 208.174C588.255 208.178 588.227 208.179 588.225 208.179C588.221 208.18 588.239 208.179 588.294 208.177C588.4 208.174 588.566 208.171 588.8 208.168C589.262 208.161 589.931 208.156 590.783 208.152C592.485 208.143 594.881 208.139 597.744 208.139V200.254ZM587.16 200.385C585.043 200.814 583.619 202.251 582.77 203.404C581.874 204.624 581.222 206.057 580.768 207.419C579.914 209.978 579.411 213.371 580.125 215.981L587.731 213.901C587.695 213.77 587.627 213.283 587.708 212.432C587.784 211.636 587.971 210.744 588.248 209.914C588.532 209.062 588.857 208.437 589.123 208.076C589.437 207.649 589.36 207.984 588.726 208.113L587.16 200.385ZM580.117 215.951C580.344 216.807 580.805 217.76 581.211 218.536C581.666 219.406 582.245 220.412 582.896 221.481C584.202 223.625 585.875 226.148 587.608 228.558L594.01 223.954C592.383 221.692 590.822 219.337 589.631 217.38C589.033 216.399 588.548 215.55 588.199 214.883C587.801 214.121 587.719 213.854 587.739 213.931L580.117 215.951ZM587.605 228.553C590.958 233.23 596.475 240.883 599.832 245.546L606.232 240.939C602.868 236.267 597.361 228.628 594.013 223.958L587.605 228.553ZM599.834 245.548C604.19 251.59 606.444 254.913 607.751 257.524C608.945 259.91 609.36 261.722 609.731 264.909L617.563 263.997C617.134 260.308 616.558 257.502 614.802 253.995C613.159 250.713 610.505 246.867 606.23 240.937L599.834 245.548ZM609.731 264.908C610.871 274.725 606.669 285.575 598.73 292.747L604.017 298.598C613.719 289.832 619.017 276.515 617.564 263.998L609.731 264.908ZM598.73 292.748C596.431 294.825 595.192 295.937 593.518 296.784C591.885 297.61 589.583 298.293 585.198 298.775C576.265 299.758 560.262 299.779 527.301 299.779V307.664C559.96 307.664 576.572 307.657 586.06 306.613C590.885 306.082 594.245 305.252 597.077 303.82C599.867 302.408 601.895 300.516 604.017 298.597L598.73 292.748ZM527.301 299.779H524.419V307.664H527.301V299.779ZM524.42 299.779C504.471 299.772 489.245 299.678 478.63 299.49C473.319 299.396 469.19 299.279 466.211 299.14C464.72 299.071 463.546 298.997 462.671 298.921C462.234 298.883 461.894 298.846 461.639 298.812C461.365 298.775 461.265 298.752 461.276 298.755L459.383 306.409C460.61 306.712 462.944 306.882 465.844 307.017C468.934 307.161 473.152 307.279 478.491 307.374C489.175 307.563 504.456 307.658 524.418 307.664L524.42 299.779ZM461.291 298.758C459.622 298.339 456.732 296.68 450.983 291.456C445.382 286.366 437.558 278.372 426.066 266.117L420.314 271.51C431.804 283.763 439.821 291.966 445.68 297.291C451.391 302.481 455.579 305.453 459.368 306.405L461.291 298.758ZM426.064 266.115C421.913 261.693 417.918 257.539 414.904 254.483C413.4 252.959 412.122 251.689 411.184 250.79C410.721 250.347 410.306 249.96 409.974 249.671C409.815 249.533 409.618 249.366 409.414 249.215C409.319 249.144 409.144 249.018 408.923 248.892C408.814 248.83 408.622 248.727 408.375 248.629C408.185 248.555 407.65 248.355 406.934 248.351L406.888 256.236C406.184 256.232 405.664 256.036 405.494 255.969C405.266 255.88 405.097 255.788 405.014 255.74C404.845 255.644 404.736 255.563 404.721 255.551C404.675 255.517 404.69 255.525 404.793 255.615C404.985 255.782 405.294 256.067 405.73 256.485C406.589 257.307 407.806 258.516 409.29 260.021C412.251 263.022 416.2 267.128 420.316 271.512L426.064 266.115ZM406.911 248.351C405.7 248.351 404.39 248.925 403.592 250.153C402.983 251.093 402.954 252.001 402.954 252.314H410.839C410.839 252.615 410.812 253.513 410.207 254.445C409.87 254.965 409.374 255.457 408.712 255.799C408.062 256.134 407.424 256.236 406.911 256.236V248.351ZM402.954 252.294L402.682 303.705L410.567 303.747L410.839 252.335L402.954 252.294ZM406.644 299.783L369.393 299.601L369.354 307.486L406.605 307.668L406.644 299.783ZM373.316 303.537L373.086 170.931L365.201 170.945L365.431 303.551L373.316 303.537ZM369.143 174.881H452.222V166.996H369.143V174.881ZM452.064 174.878C463.102 175.32 472.595 181.67 479.027 190.253C485.526 198.925 488.379 209.171 486.961 216.608L494.706 218.085C496.66 207.842 492.727 195.386 485.337 185.525C477.88 175.575 466.38 167.56 452.38 166.999L452.064 174.878ZM486.96 216.609C486.257 220.304 484.418 225.739 483.005 228.431L489.987 232.096C491.817 228.609 493.882 222.414 494.706 218.084L486.96 216.609ZM483.006 228.43C481.607 231.093 478.972 234.381 475.749 237.48C472.538 240.567 469.012 243.209 466.019 244.729L469.591 251.759C473.48 249.784 477.633 246.607 481.214 243.164C484.783 239.732 488.053 235.777 489.986 232.097L483.006 228.43ZM466.035 244.722C464.621 245.432 463.285 246.225 462.251 246.964C461.747 247.324 461.216 247.742 460.766 248.191C460.546 248.411 460.252 248.73 459.987 249.133C459.788 249.437 459.246 250.312 459.246 251.539H467.131C467.131 252.134 466.99 252.596 466.883 252.868C466.773 253.148 466.652 253.35 466.578 253.462C466.5 253.581 466.434 253.662 466.4 253.702C466.364 253.745 466.341 253.768 466.339 253.77C466.338 253.771 466.376 253.733 466.47 253.656C466.56 253.583 466.682 253.49 466.836 253.379C467.475 252.923 468.448 252.334 469.575 251.767L466.035 244.722ZM459.246 251.539C459.246 252.847 459.822 253.966 460.073 254.437C460.423 255.096 460.873 255.781 461.344 256.435C462.294 257.756 463.545 259.253 464.852 260.684C466.165 262.121 467.599 263.56 468.942 264.759C470.181 265.866 471.666 267.066 473.026 267.697L476.346 260.545C476.35 260.546 476.334 260.539 476.297 260.519C476.261 260.498 476.211 260.469 476.146 260.428C476.016 260.346 475.849 260.232 475.646 260.081C475.238 259.777 474.747 259.372 474.194 258.878C473.087 257.89 471.843 256.645 470.673 255.365C469.498 254.079 468.461 252.826 467.745 251.831C467.382 251.326 467.155 250.961 467.036 250.736C466.816 250.323 467.131 250.725 467.131 251.539H459.246ZM473.024 267.696C474.259 268.27 475.738 268.58 477.51 268.797C479.328 269.019 481.763 269.175 485.087 269.288C491.745 269.516 502.355 269.584 519.525 269.584V261.699C502.326 261.699 491.855 261.63 485.356 261.408C482.1 261.296 479.938 261.15 478.467 260.97C476.951 260.785 476.451 260.594 476.348 260.545L473.024 267.696ZM519.524 269.584L530.531 269.587L530.533 261.702L519.526 261.699L519.524 269.584ZM530.532 269.587C539.156 269.587 545.58 269.57 550.379 269.443C555.118 269.318 558.533 269.083 561.015 268.575C563.596 268.048 565.701 267.121 567.248 265.233C567.944 264.383 568.398 263.491 568.734 262.741C569.019 262.104 569.398 261.134 569.643 260.552L562.375 257.494C561.953 258.498 561.803 258.925 561.538 259.518C561.323 259.997 561.204 260.167 561.148 260.236C561.127 260.262 561.091 260.311 560.921 260.398C560.707 260.508 560.273 260.679 559.435 260.85C557.7 261.205 554.905 261.436 550.171 261.561C545.496 261.684 539.181 261.702 530.532 261.702V269.587ZM569.64 260.56C570.239 259.145 570.729 257.506 570.596 255.535C570.468 253.63 569.784 251.805 568.76 249.909C566.789 246.257 562.88 241.171 556.391 233.047L550.23 237.968C556.888 246.303 560.263 250.767 561.822 253.654C562.563 255.027 562.705 255.719 562.729 256.065C562.748 256.346 562.714 256.694 562.379 257.487L569.64 260.56ZM556.234 232.863C548.149 223.922 544.795 217.599 543.358 212.991C541.914 208.362 542.29 205.319 542.227 201.681L534.343 201.818C534.393 204.696 533.953 209.322 535.83 215.339C537.713 221.376 541.815 228.674 550.386 238.152L556.234 232.863ZM542.225 201.63C542.129 198.454 543.272 191.219 547.674 184.886C551.909 178.795 559.289 173.321 572.333 173.321V165.436C556.622 165.436 546.86 172.244 541.2 180.385C535.707 188.286 534.203 197.236 534.344 201.869L542.225 201.63ZM572.333 173.321L648.914 173.313L648.914 165.428L572.333 165.436L572.333 173.321ZM425.741 234.575C441.297 234.575 445.638 234.394 450.036 232.269L446.607 225.169C444.219 226.322 442.083 226.69 425.741 226.69V234.575ZM450.037 232.269C464.528 225.266 464.851 205.052 451.574 196.284L447.229 202.864C455.93 208.61 455.029 221.099 446.606 225.169L450.037 232.269ZM451.577 196.286C449.572 194.96 447.431 194.41 443.925 194.109C440.501 193.815 435.233 193.725 426.637 193.672L426.589 201.557C435.281 201.61 440.204 201.703 443.251 201.965C446.215 202.219 446.824 202.596 447.227 202.863L451.577 196.286ZM426.636 193.672L406.631 193.555L406.585 201.44L426.59 201.557L426.636 193.672ZM403.772 200.237C403.218 199.663 402.99 199.069 402.938 198.937C402.85 198.712 402.802 198.527 402.78 198.436C402.735 198.249 402.714 198.102 402.708 198.056C402.699 197.991 402.695 197.943 402.693 197.921C402.69 197.895 402.689 197.878 402.689 197.873C402.688 197.862 402.69 197.897 402.694 198.004C402.7 198.205 402.706 198.522 402.71 198.956C402.72 199.816 402.724 201.049 402.725 202.54C402.727 205.519 402.714 209.479 402.696 213.442C402.678 217.402 402.654 221.358 402.635 224.324C402.626 225.807 402.617 227.043 402.612 227.907C402.609 228.34 402.606 228.679 402.605 228.91C402.604 229.026 402.603 229.115 402.603 229.175C402.602 229.204 402.602 229.227 402.602 229.242C402.602 229.25 402.602 229.256 402.602 229.259C402.602 229.261 402.602 229.263 402.602 229.264C402.602 229.264 402.602 229.264 402.602 229.265C402.602 229.265 402.602 229.265 406.544 229.294C410.487 229.322 410.487 229.322 410.487 229.322C410.487 229.322 410.487 229.321 410.487 229.321C410.487 229.32 410.487 229.318 410.487 229.316C410.487 229.312 410.487 229.307 410.487 229.299C410.487 229.284 410.487 229.261 410.488 229.231C410.488 229.171 410.489 229.082 410.49 228.966C410.491 228.734 410.494 228.394 410.496 227.961C410.502 227.096 410.511 225.859 410.52 224.375C410.539 221.406 410.563 217.445 410.581 213.478C410.599 209.513 410.612 205.535 410.611 202.536C410.61 201.038 410.605 199.772 410.595 198.87C410.59 198.423 410.584 198.043 410.575 197.761C410.571 197.627 410.565 197.475 410.556 197.335C410.551 197.275 410.542 197.148 410.522 197.001C410.514 196.937 410.491 196.776 410.443 196.578C410.42 196.482 410.371 196.293 410.281 196.065C410.228 195.929 409.999 195.333 409.443 194.758L403.772 200.237ZM406.544 229.294C405.527 233.103 405.528 233.103 405.529 233.103C405.53 233.103 405.531 233.104 405.532 233.104C405.534 233.104 405.536 233.105 405.538 233.106C405.542 233.107 405.547 233.108 405.551 233.109C405.561 233.111 405.571 233.114 405.583 233.117C405.607 233.123 405.635 233.13 405.669 233.139C405.736 233.155 405.824 233.176 405.932 233.2C406.149 233.248 406.451 233.31 406.845 233.382C407.633 233.525 408.793 233.705 410.39 233.882C413.581 234.235 418.526 234.575 425.741 234.575V226.69C418.77 226.69 414.117 226.361 411.257 226.044C409.827 225.886 408.848 225.732 408.253 225.624C407.956 225.57 407.755 225.527 407.643 225.502C407.587 225.49 407.553 225.482 407.539 225.479C407.533 225.477 407.532 225.477 407.535 225.478C407.537 225.478 407.541 225.479 407.545 225.48C407.547 225.481 407.55 225.481 407.553 225.482C407.554 225.482 407.556 225.483 407.557 225.483C407.558 225.484 407.559 225.484 407.56 225.484C407.561 225.484 407.562 225.485 406.544 229.294ZM657.236 156.202H572.333V164.087H657.236V156.202ZM572.333 156.202C554.365 156.202 543.495 164.147 537.557 170.979L543.509 176.152C548.216 170.735 557.027 164.087 572.333 164.087V156.202ZM537.559 170.977C528.084 181.865 525.873 195.456 526.047 202.074L533.93 201.866C533.792 196.663 535.653 185.178 543.507 176.154L537.559 170.977ZM526.046 202.036C526.054 202.467 526.05 202.923 526.044 203.448L533.929 203.541C533.935 203.011 533.94 202.457 533.93 201.903L526.046 202.036ZM526.044 203.464C526.005 208.507 526.318 214.17 528.878 220.96C531.419 227.698 536.074 235.295 544.345 244.476L550.203 239.198C542.382 230.516 538.355 223.745 536.256 218.178C534.177 212.664 533.893 208.088 533.929 203.525L526.044 203.464ZM544.193 244.297C547.462 248.391 552.569 254.812 554.417 257.855L561.156 253.761C558.975 250.17 553.441 243.242 550.355 239.377L544.193 244.297ZM557.253 251.902C553.2 252.455 542.445 252.466 530.531 252.466V260.351C542.04 260.351 553.578 260.362 558.32 259.714L557.253 251.902ZM530.531 252.466H525.559V260.351H530.531V252.466ZM525.561 252.466L519.528 252.464L519.525 260.349L525.558 260.351L525.561 252.466ZM519.526 252.464C509.195 252.464 499.707 252.447 492.361 252.333C488.685 252.276 485.576 252.195 483.18 252.082C480.665 251.963 479.243 251.819 478.731 251.706L477.043 259.409C478.315 259.687 480.409 259.845 482.808 259.958C485.326 260.077 488.532 260.16 492.238 260.217C499.656 260.332 509.203 260.349 519.526 260.349V252.464ZM480.19 252.357C479.937 252.175 479.41 251.721 478.655 250.992L473.181 256.667C473.965 257.424 474.837 258.22 475.585 258.758L480.19 252.357ZM478.144 257.084C485.677 251.931 493.393 243.907 497.157 236.736L490.175 233.071C487.145 238.844 480.431 245.965 473.692 250.576L478.144 257.084ZM497.159 236.732C499.422 232.41 501.811 225.312 502.829 219.998L495.084 218.515C494.192 223.175 492.032 229.524 490.173 233.074L497.159 236.732ZM502.829 219.995C505.191 207.618 501.273 193.16 492.843 181.16L486.391 185.692C493.892 196.37 496.958 208.694 495.084 218.518L502.829 219.995ZM492.843 181.16C482.948 167.076 468.361 158.398 452.682 157.77L452.366 165.649C465.244 166.165 477.697 173.318 486.391 185.692L492.843 181.16ZM452.705 157.771L452.555 157.764L452.193 165.641L452.343 165.648L452.705 157.771ZM452.374 157.76H360.826V165.645H452.374V157.76ZM356.884 161.71L356.901 170.957L364.786 170.942L364.769 161.695L356.884 161.71ZM356.901 170.957L357.132 303.561L365.017 303.547L364.786 170.943L356.901 170.957ZM357.132 303.561L357.148 312.729L365.033 312.714L365.017 303.547L357.132 303.561ZM361.072 316.664L369.32 316.704L369.359 308.819L361.11 308.779L361.072 316.664ZM369.32 316.704L406.571 316.887L406.609 309.002L369.359 308.819L369.32 316.704ZM406.572 316.887L414.858 316.926L414.896 309.041L406.609 309.002L406.572 316.887ZM418.82 313.005L418.87 303.794L410.985 303.75L410.935 312.962L418.82 313.005ZM418.87 303.793L419.03 272.994L411.145 272.953L410.985 303.752L418.87 303.793ZM412.226 275.685C412.981 276.482 413.763 277.312 414.574 278.172L420.313 272.766C419.504 271.907 418.714 271.068 417.949 270.261L412.226 275.685ZM414.568 278.166C427.129 291.557 435.643 300.246 441.99 305.83C448.327 311.405 452.878 314.231 457.535 315.401L459.457 307.754C456.638 307.045 453.233 305.219 447.198 299.91C441.174 294.609 432.9 286.184 420.319 272.772L414.568 278.166ZM457.551 315.405C459.013 315.766 460.737 316.109 469.425 316.387C478.156 316.665 494.175 316.881 524.412 316.89L524.414 309.005C494.186 308.996 478.274 308.78 469.677 308.505C461.036 308.229 460.033 307.896 459.441 307.75L457.551 315.405ZM524.413 316.89H527.294V309.005H524.413V316.89ZM527.294 316.89C559.888 316.89 576.613 316.897 586.656 315.819L585.815 307.979C576.313 308.999 560.177 309.005 527.294 309.005V316.89ZM586.657 315.819C592.527 315.189 596.721 314.102 600.251 312.361C603.764 310.629 606.366 308.365 609.076 305.91L603.784 300.065C601.098 302.497 599.201 304.087 596.764 305.289C594.345 306.481 591.14 307.407 585.815 307.979L586.657 315.819ZM609.069 305.917L609.25 305.754L603.972 299.896L603.791 300.059L609.069 305.917ZM609.254 305.75C621.25 294.908 627.616 278.508 625.797 262.813L617.964 263.721C619.479 276.79 614.144 290.702 603.967 299.9L609.254 305.75ZM625.796 262.811C625.216 257.826 624.297 254.053 622.22 249.831C620.225 245.775 617.204 241.401 612.707 235.164L606.311 239.776C610.87 246.098 613.49 249.946 615.145 253.311C616.718 256.509 617.456 259.355 617.964 263.723L625.796 262.811ZM612.708 235.166L610.016 231.429L603.618 236.038L606.31 239.775L612.708 235.166ZM610.016 231.429C606.84 227.021 603.666 222.611 600.495 218.199L594.092 222.801C597.265 227.215 600.441 231.628 603.619 236.038L610.016 231.429ZM600.495 218.199C598.501 215.425 596.949 212.986 596.046 211.439L589.235 215.412C590.277 217.197 591.968 219.845 594.092 222.801L600.495 218.199ZM592.651 217.368C593.927 217.365 595.59 217.362 597.744 217.362V209.477C595.585 209.477 593.915 209.479 592.63 209.483L592.651 217.368ZM597.744 217.362C606.244 217.362 618.921 217.393 629.519 217.424C634.817 217.44 639.594 217.455 643.068 217.467C644.805 217.473 646.216 217.478 647.203 217.482C647.697 217.484 648.085 217.485 648.354 217.486C648.489 217.487 648.594 217.487 648.667 217.487C648.704 217.487 648.733 217.488 648.754 217.488C648.777 217.488 648.785 217.488 648.784 217.488L648.838 209.603C648.489 209.601 614.763 209.477 597.744 209.477V217.362ZM648.798 217.488L657.107 217.517L657.135 209.632L648.825 209.603L648.798 217.488ZM661.064 213.583L661.084 204.348L653.199 204.33L653.179 213.565L661.064 213.583ZM661.084 204.348L661.163 169.395L653.278 169.377L653.199 204.33L661.084 204.348ZM661.163 169.392L661.179 160.151L653.294 160.138L653.278 169.379L661.163 169.392ZM418.841 221.089L418.88 213.526L410.995 213.486L410.956 221.049L418.841 221.089ZM418.88 213.524C418.89 211.219 418.901 208.9 418.902 206.773L411.017 206.769C411.015 208.877 411.005 211.18 410.995 213.488L418.88 213.524ZM414.936 210.713L426.546 210.781L426.592 202.896L414.982 202.828L414.936 210.713ZM426.546 210.781C429.89 210.801 434.025 210.826 437.564 210.923C439.336 210.971 440.917 211.036 442.155 211.123C443.568 211.223 444.084 211.328 444.051 211.318L446.422 203.797C445.411 203.479 443.938 203.344 442.71 203.258C441.306 203.159 439.594 203.09 437.778 203.04C434.14 202.941 429.919 202.916 426.592 202.896L426.546 210.781ZM443.031 210.825C444.535 211.84 445.104 213.195 445.04 214.327L452.913 214.769C453.152 210.503 450.932 206.645 447.442 204.29L443.031 210.825ZM445.04 214.323C445.021 214.652 444.941 215.073 444.726 215.467C444.539 215.808 444.172 216.284 443.298 216.705L446.722 223.808C451.721 221.398 452.781 217.081 452.913 214.772L445.04 214.323ZM443.295 216.707C443.097 216.802 442.549 217.056 439.902 217.226C437.277 217.394 433.037 217.464 425.743 217.464V225.349C433.006 225.349 437.492 225.282 440.407 225.095C443.3 224.909 445.108 224.588 446.726 223.806L443.295 216.707ZM425.743 217.464C421.207 217.464 417.738 217.318 415.177 217.137L414.621 225.002C417.383 225.197 421.039 225.349 425.743 225.349V217.464ZM289.901 170.003L331.711 303.693L339.236 301.339L297.427 167.65L289.901 170.003ZM335.454 298.574L301.385 298.745L301.425 306.63L335.493 306.459L335.454 298.574ZM305.2 301.619L299.545 281.54L291.955 283.678L297.61 303.757L305.2 301.619ZM295.785 278.667L234.873 278.124L234.803 286.008L295.715 286.552L295.785 278.667ZM231.029 281.048L225.654 301.151L233.272 303.187L238.647 283.084L231.029 281.048ZM229.509 298.227L195.784 297.833L195.692 305.718L229.417 306.111L229.509 298.227ZM199.503 302.945L240.782 170.053L233.252 167.713L191.973 300.606L199.503 302.945ZM237.021 172.826L293.668 172.769L293.66 164.884L237.013 164.94L237.021 172.826ZM262.421 187.564C262.461 187.385 262.461 187.408 262.25 188.07C262.09 188.568 261.859 189.281 261.566 190.183C260.981 191.984 260.153 194.519 259.162 197.545C257.18 203.596 254.551 211.601 251.916 219.606L259.406 222.071C262.041 214.064 264.672 206.055 266.655 199.999C267.647 196.972 268.477 194.43 269.065 192.62C269.359 191.716 269.594 190.99 269.759 190.476C269.871 190.125 270.054 189.564 270.115 189.289L262.421 187.564ZM251.916 219.606C249.26 227.679 246.6 235.75 244.594 241.818C243.592 244.853 242.753 247.384 242.161 249.164C241.865 250.055 241.632 250.754 241.471 251.232C241.39 251.472 241.33 251.65 241.29 251.766C241.269 251.826 241.258 251.858 241.254 251.87C241.251 251.878 241.256 251.862 241.267 251.835C241.271 251.823 241.286 251.785 241.306 251.736C241.316 251.712 241.336 251.665 241.363 251.607C241.378 251.573 241.445 251.426 241.551 251.248L248.337 255.263C248.443 255.084 248.511 254.935 248.527 254.9C248.555 254.84 248.576 254.791 248.587 254.764C248.61 254.708 248.627 254.663 248.636 254.641C248.654 254.594 248.669 254.551 248.678 254.525C248.699 254.468 248.723 254.4 248.746 254.331C248.795 254.189 248.862 253.991 248.944 253.747C249.11 253.255 249.347 252.545 249.644 251.653C250.238 249.865 251.078 247.328 252.081 244.292C254.088 238.22 256.749 230.145 259.406 222.071L251.916 219.606ZM246.169 257.003C245.867 257.102 245.62 257.14 245.572 257.148C245.48 257.162 245.406 257.171 245.369 257.175C245.293 257.183 245.235 257.187 245.216 257.188C245.191 257.19 245.173 257.19 245.165 257.191C245.161 257.191 245.157 257.191 245.156 257.191C245.154 257.191 245.153 257.191 245.152 257.191C245.152 257.191 245.153 257.191 245.155 257.191C245.156 257.191 245.158 257.191 245.161 257.191C245.166 257.191 245.174 257.191 245.183 257.19C245.203 257.19 245.228 257.189 245.26 257.189C245.39 257.186 245.592 257.184 245.865 257.181C246.409 257.175 247.197 257.17 248.184 257.164C250.156 257.153 252.901 257.143 256.022 257.135C262.264 257.117 270 257.106 276.041 257.106V249.221C269.992 249.221 262.249 249.232 256.001 249.25C252.877 249.258 250.123 249.268 248.141 249.279C247.15 249.285 246.347 249.29 245.784 249.296C245.505 249.299 245.275 249.302 245.108 249.305C245.027 249.307 244.943 249.309 244.87 249.311C244.837 249.312 244.779 249.315 244.712 249.319C244.682 249.321 244.615 249.325 244.532 249.334C244.492 249.338 244.416 249.347 244.321 249.362C244.271 249.37 244.022 249.409 243.719 249.508L246.169 257.003ZM276.041 257.106C278.869 257.106 281.322 257.109 283.077 257.114C283.955 257.117 284.653 257.12 285.134 257.124C285.375 257.126 285.553 257.128 285.667 257.13C285.694 257.131 285.716 257.131 285.732 257.131C285.749 257.132 285.757 257.132 285.756 257.132C285.756 257.132 285.75 257.132 285.742 257.132C285.734 257.131 285.716 257.13 285.692 257.129C285.673 257.128 285.621 257.125 285.553 257.118C285.519 257.114 285.458 257.108 285.381 257.097C285.328 257.089 285.153 257.063 284.935 257.005L286.967 249.386C286.748 249.328 286.571 249.302 286.516 249.294C286.437 249.282 286.373 249.275 286.336 249.272C286.261 249.264 286.201 249.26 286.172 249.258C286.109 249.255 286.054 249.253 286.022 249.251C285.954 249.249 285.876 249.248 285.804 249.246C285.652 249.244 285.446 249.241 285.198 249.239C284.697 249.235 283.983 249.232 283.101 249.229C281.335 249.224 278.872 249.221 276.041 249.221V257.106ZM282.072 253.898L282.073 253.904L289.832 252.499L289.831 252.493L282.072 253.898ZM289.895 253.201V253.198H282.01V253.201H289.895ZM289.543 251.57L289.542 251.568L282.36 254.823L282.361 254.826L289.543 251.57ZM289.674 251.897C289.68 251.914 289.391 250.984 288.816 249.112C288.265 247.321 287.49 244.794 286.565 241.774C284.715 235.736 282.267 227.734 279.824 219.726C277.381 211.718 274.944 203.707 273.114 197.65C272.199 194.621 271.437 192.087 270.903 190.287C270.635 189.386 270.427 188.678 270.287 188.188C270.216 187.941 270.166 187.765 270.136 187.653C270.12 187.594 270.115 187.574 270.117 187.579C270.117 187.581 270.125 187.612 270.135 187.66C270.14 187.684 270.149 187.73 270.159 187.789C270.166 187.835 270.186 187.958 270.199 188.118L262.338 188.735C262.359 189.009 262.407 189.23 262.412 189.253C262.428 189.328 262.443 189.394 262.454 189.438C262.476 189.528 262.5 189.622 262.523 189.706C262.57 189.88 262.633 190.104 262.708 190.364C262.858 190.888 263.074 191.623 263.344 192.531C263.883 194.349 264.65 196.899 265.566 199.931C267.399 205.998 269.839 214.016 272.282 222.027C277.142 237.958 282.089 254.093 282.229 254.495L289.674 251.897ZM270.167 189.016L270.168 189.009L262.371 187.831L262.37 187.838L270.167 189.016ZM262.371 187.831L262.37 187.838L270.167 189.016L270.168 189.009L262.371 187.831ZM299.561 155.651L293.653 155.658L293.663 163.543L299.57 163.536L299.561 155.651ZM293.654 155.658L237.007 155.716L237.015 163.602L293.662 163.543L293.654 155.658ZM237.006 155.716L231.096 155.723L231.105 163.608L237.016 163.602L237.006 155.716ZM227.335 158.497L225.406 164.708L232.936 167.047L234.865 160.835L227.335 158.497ZM225.406 164.708L184.127 297.601L191.657 299.94L232.936 167.047L225.406 164.708ZM184.127 297.601L180.368 309.702L187.898 312.041L191.657 299.94L184.127 297.601ZM184.087 314.814L195.608 314.947L195.698 307.062L184.178 306.929L184.087 314.814ZM195.607 314.947L229.332 315.34L229.424 307.455L195.699 307.062L195.607 314.947ZM229.332 315.34L235.592 315.413L235.684 307.528L229.424 307.455L229.332 315.34ZM239.447 312.489L241.231 305.821L233.613 303.783L231.829 310.451L239.447 312.489ZM241.231 305.82L244.827 292.371L237.21 290.334L233.613 303.783L241.231 305.82ZM240.983 295.295L289.603 295.727L289.673 287.842L241.054 287.41L240.983 295.295ZM285.843 292.853L289.691 306.519L297.281 304.382L293.433 290.716L285.843 292.853ZM289.691 306.519L291.522 313.022L299.112 310.885L297.281 304.381L289.691 306.519ZM295.337 315.896L301.466 315.866L301.428 307.981L295.298 308.011L295.337 315.896ZM301.467 315.866L335.534 315.694L335.494 307.809L301.427 307.981L301.467 315.866ZM335.535 315.694L347.151 315.633L347.109 307.748L335.493 307.809L335.535 315.694ZM350.893 310.513L347.077 298.319L339.552 300.674L343.367 312.868L350.893 310.513ZM347.077 298.32L305.268 164.63L297.742 166.984L339.551 300.674L347.077 298.32ZM305.269 164.633L303.329 158.419L295.802 160.768L297.742 166.982L305.269 164.633ZM260.637 245.185C262.21 240.42 264.328 233.983 267.204 225.242L259.713 222.778C256.838 231.519 254.72 237.953 253.149 242.714L260.637 245.185ZM267.203 225.242L269.687 217.694L262.196 215.23L259.713 222.778L267.203 225.242ZM262.171 217.613L264.421 224.989L271.963 222.688L269.712 215.311L262.171 217.613ZM264.421 224.989C265.092 227.188 268.038 236.837 270.565 245.093L278.105 242.785C275.579 234.531 272.633 224.885 271.963 222.688L264.421 224.989ZM274.335 239.997C266.824 239.997 261.164 239.998 256.884 240.007L256.901 247.892C261.171 247.883 266.822 247.882 274.335 247.882V239.997ZM303.813 9.25812V42.2423H311.699V9.25812H303.813ZM307.756 38.2997H248.318V46.1848H307.756V38.2997ZM244.375 42.2423V143.122H252.26V42.2423H244.375ZM248.318 139.179H212.881V147.064H248.318V139.179ZM216.823 143.122V42.1627H208.938V143.122H216.823ZM212.868 38.2202L143.489 38.4381L143.514 46.3232L212.893 46.1052L212.868 38.2202ZM143.501 38.4381C137.887 38.4381 134.257 41.0567 132.243 44.4064C130.403 47.4687 130.074 50.8382 130.074 52.6219H137.959C137.959 51.5685 138.191 49.8174 139.002 48.4683C139.64 47.4068 140.751 46.3232 143.501 46.3232V38.4381ZM130.074 52.6219C130.074 55.387 130.982 57.8511 133.037 61.3734C135.058 64.8367 138.487 69.8083 144.075 77.6716L150.503 73.1041C144.863 65.1674 141.656 60.498 139.848 57.3994C138.074 54.3598 137.959 53.3409 137.959 52.6219H130.074ZM144.074 77.6699C147.691 82.7658 151.156 87.8501 153.819 91.9256C155.152 93.9653 156.271 95.7328 157.102 97.1123C157.519 97.803 157.851 98.3764 158.098 98.8261C158.22 99.0504 158.314 99.2303 158.383 99.369C158.456 99.5157 158.481 99.5783 158.48 99.5768L165.816 96.6849C165.454 95.7667 164.691 94.4267 163.855 93.0409C162.956 91.55 161.781 89.6959 160.42 87.6125C157.695 83.4416 154.171 78.2731 150.504 73.1059L144.074 77.6699ZM158.476 99.5661C160.454 104.625 160.269 111.518 158.08 118.262C155.897 124.99 151.932 130.907 147.162 134.186L151.629 140.684C158.2 136.167 163.019 128.591 165.581 120.695C168.137 112.816 168.658 103.955 165.82 96.6955L158.476 99.5661ZM147.163 134.185C145.002 135.669 143.972 136.419 142.511 137.015C141.089 137.595 139.072 138.085 135.159 138.434C127.215 139.142 112.796 139.18 82.6639 139.18V147.066C112.56 147.066 127.466 147.036 135.859 146.288C140.115 145.908 143.02 145.323 145.489 144.316C147.918 143.325 149.746 141.976 151.627 140.685L147.163 134.185ZM82.6639 139.18H8.30146V147.066H82.6639V139.18ZM12.244 143.123V106.067H4.3589V143.123H12.244ZM8.30146 110.009H109.891V102.124H8.30146V110.009ZM112.302 109.186L115.301 106.868L110.478 100.629L107.479 102.947L112.302 109.186ZM115.304 106.865C118.265 104.572 119.861 101.43 120.43 97.6599L112.633 96.482C112.311 98.6188 111.561 99.7908 110.475 100.632L115.304 106.865ZM120.433 97.6432C120.588 96.5862 120.781 95.2243 120.541 93.6814C120.296 92.1009 119.66 90.6504 118.733 89.0969C116.987 86.1703 113.537 81.83 107.368 74.106L101.207 79.0271C107.583 87.0098 110.567 90.7997 111.962 93.1376C112.606 94.2163 112.717 94.6816 112.749 94.8894C112.787 95.1348 112.787 95.4336 112.631 96.4987L120.433 97.6432ZM107.368 74.1064C99.8745 64.7226 96.1134 59.6201 94.2036 55.4879C92.4602 51.7158 92.2265 48.6809 92.594 43.008L84.7253 42.4983C84.3249 48.6802 84.4907 53.2674 87.0459 58.796C89.4347 63.9645 93.8713 69.8413 101.206 79.0267L107.368 74.1064ZM92.594 43.0067C92.9783 37.0433 95.6157 29.5082 100.32 23.5266C104.974 17.6075 111.381 13.5144 119.354 13.5144V5.62925C108.359 5.62925 99.8539 11.3628 94.1214 18.6524C88.4382 25.8794 85.2126 34.935 84.7252 42.4997L92.594 43.0067ZM119.361 13.5144L307.763 13.2007L307.749 5.31556L119.348 5.62926L119.361 13.5144ZM316.05 -3.92461L307.735 -3.90962L307.75 3.9755L316.065 3.9605L316.05 -3.92461ZM307.736 -3.90962L119.334 -3.59823L119.347 4.28689L307.749 3.9755L307.736 -3.90962ZM119.341 -3.59824C107.137 -3.59824 95.9652 2.28791 87.8696 12.5802L94.0673 17.4551C100.854 8.8265 109.841 4.28689 119.341 4.28689V-3.59824ZM87.8696 12.5803C81.3692 20.845 77.095 31.7235 76.4435 41.8413L84.3123 42.348C84.8562 33.9024 88.5016 24.5314 94.0674 17.455L87.8696 12.5803ZM76.4436 41.8397C75.9152 49.9934 76.4724 56.0124 79.4514 62.5937C82.3064 68.9009 87.3177 75.5391 94.9959 85.1532L101.157 80.2325C93.3543 70.4621 89.0114 64.5922 86.6349 59.342C84.3824 54.3659 83.8309 49.7781 84.3122 42.3496L76.4436 41.8397ZM94.9962 85.1536C99.5952 90.9106 103.657 96.01 104.929 98.0348L111.607 93.842C110.026 91.3251 105.544 85.7243 101.157 80.2321L94.9962 85.1536ZM104.435 95.0134C104.457 94.9238 104.484 94.834 104.517 94.7448L111.906 97.4987C111.984 97.2901 112.048 97.0779 112.1 96.8634L104.435 95.0134ZM105.477 93.2822C105.541 93.2197 105.595 93.1723 105.628 93.1446C105.66 93.1164 105.686 93.0959 105.695 93.0879C105.705 93.0798 105.712 93.0749 105.706 93.0793C105.705 93.0798 105.689 93.0926 105.678 93.1014L110.6 99.2621C110.605 99.2576 110.605 99.2582 110.618 99.2473C110.627 99.2403 110.646 99.2249 110.668 99.207C110.69 99.1892 110.726 99.1596 110.769 99.1229C110.811 99.0867 110.874 99.0314 110.947 98.9613L105.477 93.2822ZM105.73 93.061L104.877 93.7196L109.695 99.961L110.548 99.3025L105.73 93.061ZM107.286 92.8977H0V100.783H107.286V92.8977ZM-3.94256 96.8403V152.349H3.94256V96.8403H-3.94256ZM0 156.292H82.6639V148.407H0V156.292ZM82.6639 156.292C112.157 156.292 126.985 156.266 135.797 155.545L135.155 147.686C126.754 148.373 112.364 148.407 82.6639 148.407V156.292ZM135.795 155.546C140.916 155.129 144.561 154.414 147.635 153.263C150.726 152.105 153.026 150.58 155.412 148.932L150.932 142.444C148.612 144.046 146.987 145.085 144.869 145.878C142.733 146.678 139.883 147.302 135.156 147.686L135.795 155.546ZM155.414 148.931L156.001 148.525L151.518 142.039L150.931 142.445L155.414 148.931ZM155.993 148.531C164.286 142.831 170.331 133.402 173.48 123.398C176.628 113.4 177.056 102.279 173.435 93.0174L166.091 95.8885C168.893 103.057 168.719 112.264 165.959 121.03C163.201 129.791 158.033 137.561 151.527 142.033L155.993 148.531ZM173.431 93.0067C172.789 91.3809 171.452 89.0499 169.992 86.6774C168.476 84.2131 166.646 81.4131 164.851 78.7358C161.259 73.3768 157.742 68.4053 157.022 67.3909L150.593 71.9557C151.297 72.9481 154.767 77.8534 158.301 83.126C160.07 85.7645 161.837 88.469 163.276 90.8086C164.771 93.2399 165.745 95.012 166.095 95.8993L173.431 93.0067ZM157.022 67.3901C155.047 64.6104 152.462 60.9726 150.244 57.7029C149.133 56.0667 148.135 54.5526 147.361 53.3026C146.53 51.9623 146.12 51.1816 146.012 50.9039L138.662 53.7609C139.069 54.8072 139.857 56.1631 140.658 57.456C141.515 58.8393 142.582 60.4551 143.719 62.1301C145.993 65.4826 148.629 69.1913 150.593 71.9566L157.022 67.3901ZM146.255 52.7731C146.253 52.7889 146.252 52.7947 146.251 52.8002C146.25 52.8047 146.247 52.8163 146.242 52.8354C146.238 52.8532 146.228 52.8898 146.211 52.942L138.714 50.4981C138.564 50.9587 138.468 51.4595 138.419 51.8918L146.255 52.7731ZM143.536 55.5137C143.486 55.5279 143.444 55.5375 143.413 55.5439C143.383 55.5502 143.364 55.5529 143.358 55.5536C143.347 55.5551 143.392 55.5484 143.501 55.5484V47.6633C142.636 47.6633 141.944 47.7693 141.389 47.9264L143.536 55.5137ZM143.514 55.5484L204.592 55.3558L204.567 47.4707L143.489 47.6633L143.514 55.5484ZM200.637 51.4133V152.347H208.522V51.4133H200.637ZM204.579 156.29H256.619V148.405H204.579V156.29ZM260.562 152.347V51.4675H252.676V152.347H260.562ZM256.619 55.41H316.057V47.5249H256.619V55.41ZM320 51.4675V0.0179443H312.115V51.4675H320ZM320 0.0179443V0.0179443H312.115V0.0179443H320ZM400.558 11.5006L442.252 145.536L449.782 143.194L408.087 9.15848L400.558 11.5006ZM446.041 140.423L412.036 140.215L411.988 148.1L445.993 148.308L446.041 140.423ZM415.814 143.112L410.293 123.034L402.69 125.124L408.211 145.203L415.814 143.112ZM406.511 120.136L345.87 119.836L345.831 127.721L406.472 128.021L406.511 120.136ZM342.054 122.715L336.636 142.057L344.229 144.184L349.647 124.842L342.054 122.715ZM340.433 139.178H305.806V147.063H340.433V139.178ZM309.571 144.29L350.808 11.4988L343.277 9.1603L302.041 141.952L309.571 144.29ZM347.043 14.2721H404.323V6.38696H347.043V14.2721ZM355.753 99.1786L397.055 99.1209L397.044 91.2358L355.742 91.2935L355.753 99.1786ZM393.107 95.1784V95.1795H400.992V95.1784H393.107ZM397.05 99.1221C398.764 98.7303 400.591 96.9138 400.88 96.1141C400.949 95.7667 400.993 95.2337 400.991 95.0518C400.982 94.7694 400.943 94.5484 400.936 94.5084C400.912 94.3663 400.885 94.2502 400.877 94.217C400.854 94.1207 400.827 94.023 400.808 93.9519C400.765 93.7955 400.705 93.5855 400.634 93.3395C400.489 92.8407 400.276 92.1197 400.005 91.2154C399.463 89.4036 398.683 86.8202 397.744 83.7262C395.866 77.5364 393.347 69.2853 390.82 61.0346C388.294 52.7838 385.758 44.5301 383.845 38.3351C382.889 35.2383 382.087 32.6523 381.52 30.8374C381.236 29.9312 381.009 29.21 380.85 28.7114C380.771 28.4647 380.704 28.2583 380.653 28.1069C380.629 28.0361 380.6 27.9499 380.571 27.8693C380.559 27.8372 380.529 27.7543 380.489 27.6575C380.473 27.6208 380.422 27.497 380.343 27.3467C380.297 27.2604 380.163 27.0347 380.07 26.8971C379.865 26.6304 378.934 25.8207 378.12 25.4335L375.568 32.8944C374.755 32.5074 373.824 31.6983 373.62 31.4328C373.528 31.2964 373.395 31.0724 373.349 30.9883C373.273 30.8423 373.225 30.725 373.213 30.6966C373.193 30.6499 373.179 30.614 373.173 30.5974C373.166 30.5784 373.161 30.5647 373.159 30.5585C373.153 30.5427 373.157 30.5525 373.175 30.6078C373.209 30.7088 373.263 30.8755 373.34 31.1145C373.491 31.5873 373.712 32.2881 373.994 33.1902C374.557 34.9918 375.355 37.5672 376.311 40.6616C378.221 46.8488 380.755 55.0962 383.281 63.3435C385.807 71.5909 388.323 79.835 390.199 86.016C391.137 89.1073 391.914 91.6782 392.451 93.4742C392.719 94.3739 392.926 95.0703 393.061 95.5378C393.13 95.775 393.176 95.9355 393.201 96.0287C393.216 96.0824 393.214 96.0794 393.207 96.0465C393.206 96.0449 393.184 95.9528 393.162 95.8266C393.157 95.7947 393.119 95.5797 393.11 95.3012C393.108 95.1214 393.152 94.5899 393.22 94.2435C393.51 93.4448 395.336 91.6288 397.05 91.237V99.1221ZM376.998 25.2244C375.794 25.3638 374.291 26.1596 373.933 26.5045C373.778 26.6851 373.557 26.9862 373.483 27.101C373.363 27.2967 373.286 27.4612 373.266 27.504C373.21 27.6247 373.169 27.7275 373.155 27.7621C373.119 27.854 373.084 27.9491 373.058 28.0208C373.002 28.1768 372.93 28.3867 372.846 28.6333C372.676 29.133 372.434 29.8551 372.134 30.7609C371.532 32.5758 370.683 35.1632 369.672 38.2623C367.649 44.4622 364.971 52.7266 362.313 60.9905C359.655 69.253 357.014 77.5229 355.066 83.7307C354.092 86.8319 353.287 89.433 352.738 91.2653C352.465 92.1758 352.247 92.9258 352.102 93.4614C352.032 93.7173 351.962 93.9858 351.913 94.2176C351.893 94.3083 351.846 94.5297 351.82 94.7863C351.812 94.8661 351.771 95.2397 351.828 95.704C351.851 95.8975 351.934 96.5148 352.323 97.193C352.799 98.0242 353.928 99.1786 355.748 99.1786V91.2935C357.564 91.2935 358.69 92.4458 359.164 93.2731C359.551 93.9472 359.631 94.5585 359.654 94.744C359.709 95.1924 359.669 95.5419 359.664 95.59C359.652 95.7058 359.638 95.7895 359.633 95.818C359.626 95.8538 359.622 95.8748 359.621 95.8754C359.621 95.8776 359.622 95.8707 359.627 95.8527C359.631 95.8353 359.637 95.8112 359.645 95.7796C359.661 95.7158 359.683 95.6322 359.711 95.5265C359.829 95.0942 360.023 94.4246 360.292 93.5283C360.825 91.747 361.618 89.1857 362.589 86.0922C364.529 79.9107 367.164 71.6614 369.819 63.4051C372.475 55.1503 375.149 46.8964 377.168 40.7082C378.178 37.6133 379.023 35.0394 379.618 33.2418C379.917 32.3413 380.15 31.6444 380.309 31.1767C380.39 30.9396 380.446 30.7789 380.48 30.6851C380.499 30.632 380.499 30.6325 380.488 30.6611C380.487 30.664 380.456 30.7429 380.407 30.8477C380.391 30.8825 380.317 31.0411 380.199 31.2328C380.127 31.3456 379.907 31.6452 379.753 31.8248C379.396 32.1688 377.894 32.9641 376.69 33.1035L376.998 25.2244ZM410.238 -2.83937H341.129V5.04576H410.238V-2.83937ZM337.363 -0.0651182L335.434 6.15228L342.965 8.4889L344.894 2.2715L337.363 -0.0651182ZM335.435 6.15132L294.196 138.944L301.727 141.282L342.965 8.48987L335.435 6.15132ZM294.196 138.944L290.396 151.179L297.927 153.518L301.726 141.282L294.196 138.944ZM294.161 156.291H346.549V148.406H294.161V156.291ZM350.345 153.411L352.161 146.926L344.568 144.8L342.752 151.285L350.345 153.411ZM352.161 146.926L355.753 134.101L348.16 131.974L344.568 144.8L352.161 146.926ZM351.937 136.98L400.327 137.219L400.366 129.334L351.976 129.095L351.937 136.98ZM396.545 134.322L400.28 147.9L407.882 145.808L404.148 132.231L396.545 134.322ZM400.28 147.9L402.067 154.392L409.669 152.3L407.882 145.808L400.28 147.9ZM405.843 157.288L411.952 157.326L412.001 149.441L405.892 149.403L405.843 157.288ZM411.953 157.326L445.958 157.535L446.007 149.65L412.001 149.441L411.953 157.326ZM445.959 157.535L457.681 157.607L457.729 149.722L446.007 149.65L445.959 157.535ZM461.47 152.493L457.64 140.181L450.111 142.523L453.941 154.835L461.47 152.493ZM457.64 140.181L415.946 6.14264L408.417 8.48471L450.111 142.523L457.64 140.181ZM415.944 6.13614L414 -0.0743341L406.475 2.28072L408.419 8.4912L415.944 6.13614ZM371.039 87.1864C374.126 77.4519 377.241 67.7287 380.385 58.0169L372.883 55.5882C369.734 65.3151 366.614 75.0534 363.522 84.803L371.039 87.1864ZM372.865 57.9593C375.847 67.674 378.816 77.3931 381.774 87.1167L389.318 84.822C386.358 75.0922 383.387 65.3668 380.403 55.6459L372.865 57.9593ZM385.54 82.0268L367.275 82.0522L367.286 89.9373L385.551 89.9119L385.54 82.0268ZM521.423 14.2721C534.856 14.2721 546.215 14.3787 554.652 14.5709C558.872 14.6671 562.342 14.7843 564.964 14.9189C567.688 15.0587 569.251 15.2074 569.833 15.3196L571.325 7.57686C570.112 7.34311 567.995 7.17893 565.368 7.04412C562.64 6.9041 559.088 6.78485 554.831 6.68784C546.313 6.49374 534.889 6.38696 521.423 6.38696V14.2721ZM569.831 15.3191C577.057 16.7164 583.735 21.024 588.841 27.8952L595.17 23.1924C589.029 14.9277 580.705 9.39078 571.328 7.57738L569.831 15.3191ZM588.842 27.8969C591.705 31.7447 593.237 34.2955 594.21 37.0319C595.193 39.8002 595.696 43.0183 596.074 48.3565L603.94 47.7993C603.55 42.2977 602.994 38.2035 601.64 34.3919C600.274 30.5485 598.19 27.2521 595.169 23.1906L588.842 27.8969ZM596.075 48.3608C597.072 62.2272 591.212 74.0775 579.46 81.8692L583.818 88.441C597.907 79.0995 605.144 64.5394 603.939 47.7951L596.075 48.3608ZM579.457 81.8716C575.616 84.424 571.975 86.6986 571.272 87.0505L574.803 94.1007C576.035 93.4839 580.13 90.8916 583.821 88.4387L579.457 81.8716ZM571.262 87.0555C570.77 87.3035 569.702 87.8738 568.955 89.013C568.024 90.4329 568.057 91.9457 568.372 93.0777C568.638 94.0351 569.143 94.8873 569.562 95.5308C570.018 96.2295 570.605 97.0225 571.279 97.9011L577.535 93.1015C576.882 92.2502 576.449 91.656 576.167 91.2237C575.849 90.7363 575.899 90.7137 575.969 90.9656C576.016 91.1328 576.089 91.4821 576.042 91.9483C575.991 92.4488 575.817 92.9287 575.55 93.3359C575.303 93.7119 575.042 93.9287 574.919 94.0204C574.8 94.1089 574.74 94.1324 574.813 94.0957L571.262 87.0555ZM571.28 97.9025C573.138 100.322 576.29 103.694 578.422 105.532L583.572 99.5613C581.885 98.1061 579.097 95.1347 577.534 93.1001L571.28 97.9025ZM578.42 105.531L581.905 108.541L587.059 102.573L583.573 99.5629L578.42 105.531ZM584.419 109.499L648.839 110.525L648.964 102.641L584.545 101.615L584.419 109.499ZM644.96 106.651L645.592 143.189L653.475 143.053L652.844 106.515L644.96 106.651ZM649.534 139.178H610.037V147.063H649.534V139.178ZM610.037 139.178C594.759 139.178 584.738 139.1 578.189 138.89C574.911 138.785 572.569 138.649 570.903 138.483C569.158 138.308 568.438 138.123 568.226 138.044L565.469 145.432C566.692 145.888 568.269 146.144 570.118 146.329C572.046 146.521 574.594 146.664 577.937 146.771C584.629 146.985 594.768 147.063 610.037 147.063V139.178ZM568.238 138.049C567.754 137.866 566.696 137.271 564.861 135.836C563.099 134.457 560.851 132.49 558.025 129.829C552.378 124.51 544.623 116.609 534.151 105.537L528.422 110.955C538.915 122.05 546.799 130.087 552.619 135.569C555.528 138.308 557.972 140.457 560.003 142.046C561.962 143.578 563.799 144.802 565.458 145.427L568.238 138.049ZM534.151 105.538L519.188 89.7132L513.458 95.1308L528.422 110.955L534.151 105.538ZM512.38 92.4343L512.538 143.133L520.423 143.108L520.266 92.4098L512.38 92.4343ZM516.481 139.178H478.04V147.063H516.481V139.178ZM481.982 143.121V10.3295H474.097V143.121H481.982ZM478.04 14.2721H521.423V6.38696H478.04V14.2721ZM515.761 73.978H536.172V66.0929H515.761V73.978ZM536.172 73.978C545.976 73.978 551.373 73.9664 554.626 73.6262C556.319 73.4492 557.739 73.159 559.036 72.5863C560.35 72.0064 561.283 71.241 562.014 70.6318L556.965 64.5746C556.279 65.1463 556.072 65.2755 555.851 65.3731C555.614 65.4778 555.106 65.648 553.806 65.7839C551.075 66.0694 546.23 66.0929 536.172 66.0929V73.978ZM562.014 70.6319C564.888 68.2365 567.07 65.6043 568.393 62.4086C569.714 59.219 570.042 55.7963 569.739 52.0386L561.879 52.6724C562.115 55.5923 561.816 57.6829 561.108 59.3925C560.403 61.0959 559.156 62.7488 556.966 64.5745L562.014 70.6319ZM569.739 52.0434C569.436 48.2233 568.59 44.8676 566.666 41.9875C564.731 39.091 561.976 37.0772 558.596 35.4494L555.174 42.5537C557.782 43.8091 559.215 45.0292 560.109 46.3672C561.014 47.7217 561.635 49.6013 561.879 52.6676L569.739 52.0434ZM558.608 35.4555C554.224 33.3249 549.858 33.156 534.346 33.156V41.0412C550.669 41.0412 552.801 41.4005 555.162 42.5476L558.608 35.4555ZM534.346 33.156H515.761V41.0412H534.346V33.156ZM511.818 37.0986V70.0355H519.703V37.0986H511.818ZM521.423 -2.83937H469.748V5.04576H521.423V-2.83937ZM465.805 1.10319V152.347H473.69V1.10319H465.805ZM469.748 156.29H524.818V148.405H469.748V156.29ZM528.76 152.335L528.732 143.078L520.847 143.102L520.875 152.359L528.76 152.335ZM528.732 143.077L528.639 113.994L520.754 114.02L520.847 143.102L528.732 143.077ZM521.833 116.718L522.707 117.641L528.432 112.219L527.559 111.296L521.833 116.718ZM522.705 117.639C535.677 131.355 544.161 139.863 550.068 145.196C555.928 150.488 559.555 152.942 562.8 154.164L565.578 146.784C563.779 146.107 561.058 144.496 555.352 139.344C549.692 134.234 541.388 125.919 528.434 112.221L522.705 117.639ZM562.804 154.165C565.37 155.128 568.504 155.606 575.085 155.894C581.728 156.185 592.309 156.29 610.042 156.29V148.405C592.281 148.405 581.872 148.299 575.43 148.017C568.926 147.732 566.881 147.273 565.574 146.783L562.804 154.165ZM610.042 156.29H658V148.405H610.042V156.29ZM661.942 152.279L661.78 142.876L653.896 143.012L654.058 152.415L661.942 152.279ZM661.78 142.876L661.148 106.339L653.264 106.475L653.896 143.012L661.78 142.876ZM661.148 106.34L660.997 97.4214L653.113 97.5554L653.264 106.474L661.148 106.34ZM657.117 93.5464L649.092 93.4184L648.966 101.302L656.992 101.43L657.117 93.5464ZM649.092 93.4184L587.452 92.4369L587.326 100.321L648.966 101.302L649.092 93.4184ZM589.968 93.3969L588.677 92.2806L583.519 98.2446L584.81 99.361L589.968 93.3969ZM588.686 92.2882C588.364 92.008 587.934 91.605 587.448 91.1179L581.865 96.6855C582.442 97.2641 583.01 97.8021 583.51 98.237L588.686 92.2882ZM586.829 97.1919L588.081 96.365L583.737 89.7846L582.484 90.6115L586.829 97.1919ZM588.088 96.3603C604.849 85.2435 613.669 67.2061 612.222 47.0608L604.357 47.6258C605.602 64.9532 598.104 80.2552 583.73 89.7892L588.088 96.3603ZM612.222 47.0646C611.764 40.6003 610.999 35.6071 609.335 30.9438C607.662 26.2579 605.168 22.1424 601.573 17.3109L595.247 22.0176C598.606 26.5325 600.603 29.9369 601.909 33.5942C603.222 37.2742 603.92 41.4474 604.357 47.6219L612.222 47.0646ZM601.574 17.3122C594.22 7.41925 584.017 0.663242 572.751 -1.51194L571.257 6.2302C580.383 7.99235 588.936 13.5281 595.246 22.0164L601.574 17.3122ZM572.75 -1.51224C571.002 -1.84904 567.867 -2.07005 564.203 -2.23638C560.429 -2.40768 555.786 -2.53133 550.831 -2.62033C540.916 -2.79843 529.661 -2.83937 521.423 -2.83937V5.04576C529.645 5.04576 540.845 5.0867 550.689 5.26353C555.613 5.35198 560.175 5.47406 563.845 5.64064C567.624 5.81219 570.172 6.02121 571.258 6.2305L572.75 -1.51224ZM524.062 50.2663H534.346V42.3812H524.062V50.2663ZM534.346 50.2663C541.638 50.2663 545.876 50.3347 548.495 50.5006C551.145 50.6685 551.67 50.9198 551.84 51.0021L555.283 43.9082C553.675 43.1278 551.869 42.8135 548.994 42.6313C546.088 42.4472 541.607 42.3812 534.346 42.3812V50.2663ZM551.852 51.0079C552.637 51.3856 553.07 51.633 553.323 51.8086C553.543 51.9611 553.509 51.979 553.432 51.864C553.355 51.748 553.377 51.7096 553.428 51.9448C553.489 52.2297 553.545 52.6696 553.61 53.4844L561.47 52.8574C561.349 51.3374 561.188 49.2879 560 47.5009C558.803 45.6979 556.945 44.7082 555.271 43.9024L551.852 51.0079ZM553.61 53.4886C553.736 55.0507 553.623 55.3988 553.57 55.5282C553.52 55.6523 553.314 56.0823 551.985 57.1888L557.03 63.2485C558.634 61.9135 560.077 60.4624 560.876 58.4944C561.673 56.5318 561.609 54.5768 561.47 52.8532L553.61 53.4886ZM551.994 57.1811L551.763 57.3726L556.79 63.4476L557.021 63.2561L551.994 57.1811ZM553.48 56.5488C552.961 56.6557 551.121 56.7649 547.807 56.8172C544.684 56.8665 540.678 56.8666 536.172 56.8666V64.7517C540.655 64.7517 544.732 64.7518 547.931 64.7013C550.939 64.6539 553.656 64.5635 555.073 64.2714L553.48 56.5488ZM536.172 56.8666H524.062V64.7517H536.172V56.8666ZM528.005 60.8091V46.3238H520.12V60.8091H528.005Z" fill="#FFC500" mask="url(#path-1-inside-1)"/>
</g>
</g>
<defs>
<filter id="filter0_d" x="-4" y="0.0179443" width="666" height="320.965" filterUnits="userSpaceOnUse" color-interpolation-filters="sRGB">
<feFlood flood-opacity="0" result="BackgroundImageFix"/>
<feColorMatrix in="SourceAlpha" type="matrix" values="0 0 0 0 0 0 0 0 0 0 0 0 0 0 0 0 0 0 127 0"/>
<feOffset dy="4"/>
<feGaussianBlur stdDeviation="2"/>
<feColorMatrix type="matrix" values="0 0 0 0 0 0 0 0 0 0 0 0 0 0 0 0 0 0 0.25 0"/>
<feBlend mode="normal" in2="BackgroundImageFix" result="effect1_dropShadow"/>
<feBlend mode="normal" in="SourceGraphic" in2="effect1_dropShadow" result="shape"/>
</filter>
<clipPath id="clip0">
<rect width="658" height="313" fill="white"/>
</clipPath>
</defs>
</svg>
